<svg xmlns="http://www.w3.org/2000/svg" version="1.1" xmlns:xlink="http://www.w3.org/1999/xlink" xmlns:svgjs="http://svgjs.com/svgjs" width="512" height="512" x="0" y="0" viewBox="0 0 510.701 510.701" style="enable-background:new 0 0 512 512" xml:space="preserve" class=""><g><path d="m375.788 96.435 41.299 17.729a109.36 109.36 0 0 1 24.253 14.343 7.465 7.465 0 0 0 4.617 1.594 7.499 7.499 0 0 0 4.627-13.406 124.377 124.377 0 0 0-27.579-16.313l-41.3-17.73a69.97 69.97 0 0 1-20.742-13.688c-13.846-13.193-21.786-31.727-21.786-50.85V7.5c0-4.143-3.357-7.5-7.5-7.5s-7.5 3.357-7.5 7.5v10.613c0 23.207 9.637 45.699 26.438 61.709a84.941 84.941 0 0 0 25.173 16.613zM509.845 427.368l-8.718-16.766a8.271 8.271 0 0 1-.929-3.799v-83.827a42.493 42.493 0 0 0-13.747-31.306c.003-.093.014-.184.014-.278l.001-24.859c18.902-40.602 14.444-88.231-11.784-124.721a7.498 7.498 0 0 0-10.467-1.713 7.499 7.499 0 0 0-1.713 10.467c23.356 32.495 27.076 75.035 9.708 111.021a7.51 7.51 0 0 0-.745 3.26v13.967l-70.216-59.972v-8.718c0-4.143-3.357-7.5-7.5-7.5s-7.5 3.357-7.5 7.5v104.918c0 10.252-1.847 20.477-5.381 30.089l-1.321-2.202c-3.903-6.506-10.132-10.999-17.537-12.652-7.404-1.648-14.952-.234-21.251 3.994-10.938 7.34-15.111 21.455-9.924 33.564l20.657 48.208a93.514 93.514 0 0 0 23.11 32.412c-.001.169-.004.337.007.508l3.344 52.81a7.5 7.5 0 0 0 14.971-.948l-2.584-40.807a94.263 94.263 0 0 0 7.75 4.053l8.45 3.929 29.339 39.66a7.484 7.484 0 0 0 6.035 3.04 7.498 7.498 0 0 0 6.023-11.96l-30.475-41.196a7.497 7.497 0 0 0-2.868-2.341l-10.183-4.734a78.518 78.518 0 0 1-39.132-40.334l-20.657-48.207a12.427 12.427 0 0 1 4.495-15.202 12.309 12.309 0 0 1 9.625-1.809 12.3 12.3 0 0 1 7.942 5.729l15.096 25.159c3.141 5.232 8.882 8.483 14.984 8.483h10.226c8.61 0 15.864-6.168 17.248-14.667l1.533-9.419a7.498 7.498 0 0 0-6.197-8.607 7.5 7.5 0 0 0-8.607 6.197l-1.533 9.418a2.466 2.466 0 0 1-2.443 2.078h-10.226a2.489 2.489 0 0 1-2.122-1.201l-4.3-7.167c7.133-14.182 10.907-30.003 10.907-45.88v-29.847l17.246 20.605c.499.596.714 1.378.589 2.146l-2.912 17.887a7.498 7.498 0 0 0 7.411 8.706 7.502 7.502 0 0 0 7.394-6.296l2.912-17.888a17.66 17.66 0 0 0-3.892-14.183l-28.748-34.346v-23.256l74.286 63.448a27.524 27.524 0 0 1 9.662 20.959v83.827c0 3.716.906 7.423 2.62 10.719l8.718 16.766a7.5 7.5 0 1 0 13.309-6.919zM310.151 305.566c-13.611 12.235-21.417 29.742-21.417 48.031 0 10.469 2.565 20.868 7.419 30.074a7.5 7.5 0 0 0 10.133 3.137 7.502 7.502 0 0 0 3.137-10.133c-3.722-7.058-5.688-15.038-5.688-23.078a49.667 49.667 0 0 1 16.444-36.877 7.5 7.5 0 1 0-10.028-11.154z" fill="#f1e6d5" data-original="#000000" class="" opacity="1"></path><path d="M339.967 290.409a7.501 7.501 0 0 0 3.086 14.68 50.402 50.402 0 0 1 19.26-.244 7.5 7.5 0 1 0 2.705-14.753c-8.229-1.509-16.881-1.401-25.051.317zM179.024 0a7.499 7.499 0 0 0-7.5 7.5v10.613c0 19.123-7.94 37.656-21.786 50.85a70.007 70.007 0 0 1-20.743 13.688L87.696 100.38c-31.368 13.466-55.229 38.491-67.185 70.466-11.752 31.431-10.418 65.342 3.723 95.688v24.858c0 .089.01.176.013.264a41.65 41.65 0 0 0-13.745 30.929v13.298c0 4.143 3.357 7.5 7.5 7.5s7.5-3.357 7.5-7.5v-13.298a26.679 26.679 0 0 1 9.365-20.315l74.583-63.702v23.256l-28.748 34.345a17.663 17.663 0 0 0-3.892 14.185l9.65 59.268a17.409 17.409 0 0 0 17.248 14.667h10.226c6.104 0 11.846-3.251 14.984-8.484l15.096-25.157a12.304 12.304 0 0 1 7.942-5.731 12.311 12.311 0 0 1 9.626 1.81 12.427 12.427 0 0 1 4.494 15.201l-20.657 48.208a78.523 78.523 0 0 1-39.133 40.336l-10.182 4.732a7.488 7.488 0 0 0-2.868 2.341l-30.475 41.196a7.498 7.498 0 0 0 1.569 10.489 7.453 7.453 0 0 0 4.454 1.471 7.49 7.49 0 0 0 6.035-3.04l29.339-39.66 8.449-3.927a94.145 94.145 0 0 0 7.751-4.054l-2.584 40.806a7.5 7.5 0 0 0 14.971.948l3.344-52.81c.011-.171.007-.339.006-.508a93.527 93.527 0 0 0 23.11-32.412l20.657-48.209c5.188-12.108 1.015-26.224-9.923-33.563-6.3-4.228-13.849-5.646-21.253-3.993-7.405 1.652-13.634 6.146-17.536 12.653l-1.321 2.201c-3.534-9.614-5.381-19.838-5.381-30.091V210.124c0-4.143-3.357-7.5-7.5-7.5s-7.5 3.357-7.5 7.5v8.718l-70.217 59.973v-13.968a7.51 7.51 0 0 0-.745-3.26c-13.042-27.022-14.437-57.382-3.928-85.486S66.042 126 93.614 114.164l41.298-17.729a84.976 84.976 0 0 0 25.174-16.612c16.802-16.011 26.438-38.502 26.438-61.709V7.5c0-4.143-3.357-7.5-7.5-7.5zm-62.966 368.089a2.486 2.486 0 0 1-2.122 1.201H103.71a2.466 2.466 0 0 1-2.443-2.077l-9.65-59.267a2.673 2.673 0 0 1 .589-2.147l17.246-20.604v29.848c0 15.877 3.773 31.698 10.907 45.88z" fill="#f1e6d5" data-original="#000000" class="" opacity="1"></path><path d="M18.003 360.348a7.499 7.499 0 0 0-7.5 7.5v39.163c0 1.182-.288 2.36-.833 3.408L.857 427.368a7.5 7.5 0 0 0 13.308 6.92l8.813-16.95a22.489 22.489 0 0 0 2.524-10.327v-39.163a7.497 7.497 0 0 0-7.499-7.5zM200.55 305.566a7.498 7.498 0 0 0-10.591.563 7.498 7.498 0 0 0 .563 10.591 49.667 49.667 0 0 1 16.444 36.877c0 8.04-1.967 16.021-5.688 23.078a7.501 7.501 0 0 0 13.27 6.996c4.854-9.206 7.419-19.605 7.419-30.074 0-18.288-7.806-35.795-21.417-48.031zM145.684 290.091c-4.074.747-6.771 4.655-6.024 8.729s4.661 6.775 8.729 6.024a50.422 50.422 0 0 1 19.26.244 7.504 7.504 0 0 0 8.883-5.797 7.5 7.5 0 0 0-5.797-8.883c-8.171-1.717-16.823-1.825-25.051-.317zM256.147 0a7.499 7.499 0 0 0-7.5 7.5v17.538c0 4.143 3.357 7.5 7.5 7.5s7.5-3.357 7.5-7.5V7.5c0-4.143-3.357-7.5-7.5-7.5zM256.147 67.12a7.499 7.499 0 0 0-7.5 7.5v17.537c0 4.143 3.357 7.5 7.5 7.5s7.5-3.357 7.5-7.5V74.62a7.5 7.5 0 0 0-7.5-7.5zM256.147 134.239a7.499 7.499 0 0 0-7.5 7.5v17.537c0 4.143 3.357 7.5 7.5 7.5s7.5-3.357 7.5-7.5v-17.537a7.5 7.5 0 0 0-7.5-7.5zM256.147 201.358a7.499 7.499 0 0 0-7.5 7.5v17.538c0 4.143 3.357 7.5 7.5 7.5s7.5-3.357 7.5-7.5v-17.538a7.5 7.5 0 0 0-7.5-7.5zM256.147 268.479a7.499 7.499 0 0 0-7.5 7.5v17.537c0 4.143 3.357 7.5 7.5 7.5s7.5-3.357 7.5-7.5v-17.537c0-4.143-3.357-7.5-7.5-7.5zM256.147 335.598a7.499 7.499 0 0 0-7.5 7.5v17.538c0 4.143 3.357 7.5 7.5 7.5s7.5-3.357 7.5-7.5v-17.538c0-4.143-3.357-7.5-7.5-7.5zM256.147 402.718a7.499 7.499 0 0 0-7.5 7.5v17.537c0 4.143 3.357 7.5 7.5 7.5s7.5-3.357 7.5-7.5v-17.537c0-4.143-3.357-7.5-7.5-7.5zM256.147 469.837a7.499 7.499 0 0 0-7.5 7.5v17.537c0 4.143 3.357 7.5 7.5 7.5s7.5-3.357 7.5-7.5v-17.537c0-4.143-3.357-7.5-7.5-7.5z" fill="#f1e6d5" data-original="#000000" class="" opacity="1"></path></g></svg>