<?xml version="1.0" encoding="UTF-8"?>
<svg xmlns="http://www.w3.org/2000/svg" id="a" width="865.76" height="682.89" viewBox="0 0 865.76 682.89">
  <path d="M783.45,382.59c-3.45,22.44-9.46,44.41-17.92,65.48v.09c-.83,2.05-1.65,4-2.43,5.76-.49,1.14-1,2.23-1.44,3.26l-.05,.09c-2.26,5.07-4.8,10-7.61,14.79-2.08,4.4-4.29,8.66-6.64,12.79-24.44,43.08-62,70.76-92.05,87.29-3.44,1.9-6.78,3.65-10,5.24-21.84,10.95-37.65,15.41-37.65,15.41-21.49,8.82-46,14.56-71.59,18.1-19.9,2.66-39.93,4.2-60,4.63-86.07,2.13-166.27-12.68-166.27-12.68-106-24.14-154.25-67.62-154.25-67.62-3.78-2.77-7.38-5.62-10.8-8.53l-1.69-1.46c-.57-.48-1.12-1-1.67-1.47l-1.83-1.65c-1-.93-2-1.86-3-2.81-.53-.49-1-1-1.55-1.5-.9-.86-1.79-1.75-2.65-2.64-.63-.63-1.25-1.26-1.85-1.9-1.46-1.53-2.88-3.07-4.24-4.62-.46-.51-.92-1-1.36-1.54-6.43-7.4-12.26-15.31-17.44-23.63-.65-1.05-1.27-2.09-1.89-3.13s-1.24-2.1-1.83-3.16-1.19-2.1-1.75-3.14c-2.74-5-5.15-10-7.27-14.91-.12-.27-.24-.55-.34-.81-.42-.94-.82-1.89-1.2-2.84s-.67-1.64-1-2.46c-1.08-2.69-2-5.34-2.95-7.95-.23-.66-.46-1.31-.67-2-.57-1.68-1.11-3.42-1.57-5.05l-.19-.61c-8.31-27.54-8-47.9-8-47.9-2.66-59.53,16.84-96.76,31.92-116.37,9.16-11.89,16.69-17.31,16.69-17.31,0,0,28.15-27.62,106.34-50.42,92.4-26.95,135.24-68.16,135.24-68.16,92.69-107.92,213.6-80.7,213.6-80.7,180.51,30.42,197.75,210.93,197.75,210.93,7.95,37.87,9,76.87,3.1,115.11Z" fill="#2A4A30"></path>
  <g opacity=".8">
    <path d="M783.45,382.59c-3.45,22.44-9.46,44.41-17.92,65.48v.09c-.83,2.05-1.65,4-2.43,5.76-.49,1.14-1,2.23-1.44,3.26l-.05,.09c-2.26,5.07-4.8,10-7.61,14.79-2.08,4.4-4.29,8.66-6.64,12.79-24.44,43.08-62,70.76-92.05,87.29-3.44,1.9-6.78,3.65-10,5.24-21.84,10.95-37.65,15.41-37.65,15.41-21.49,8.82-46,14.56-71.59,18.1-19.9,2.66-39.93,4.2-60,4.63-86.07,2.13-166.27-12.68-166.27-12.68-106-24.14-154.25-67.62-154.25-67.62-3.78-2.77-7.38-5.62-10.8-8.53l-1.69-1.46c-.57-.48-1.12-1-1.67-1.47l-1.83-1.65c-1-.93-2-1.86-3-2.81-.53-.49-1-1-1.55-1.5-.9-.86-1.79-1.75-2.65-2.64-.63-.63-1.25-1.26-1.85-1.9-1.46-1.53-2.88-3.07-4.24-4.62-.46-.51-.92-1-1.36-1.54-6.43-7.4-12.26-15.31-17.44-23.63-.65-1.05-1.27-2.09-1.89-3.13s-1.24-2.1-1.83-3.16-1.19-2.1-1.75-3.14c-2.74-5-5.15-10-7.27-14.91-.12-.27-.24-.55-.34-.81-.42-.94-.82-1.89-1.2-2.84s-.67-1.64-1-2.46c-1.08-2.69-2-5.34-2.95-7.95-.23-.66-.46-1.31-.67-2-.57-1.68-1.11-3.42-1.57-5.05l-.19-.61c-8.31-27.54-8-47.9-8-47.9-2.66-59.53,16.84-96.76,31.92-116.37,9.16-11.89,16.69-17.31,16.69-17.31,0,0,28.15-27.62,106.34-50.42,92.4-26.95,135.24-68.16,135.24-68.16,92.69-107.92,213.6-80.7,213.6-80.7,180.51,30.42,197.75,210.93,197.75,210.93,7.95,37.87,9,76.87,3.1,115.11Z" fill="#fff"></path>
  </g>
  <path d="M459.04,616.22c-78.53,0-148.58-12.76-149.33-12.9-104.93-23.9-154.01-67.3-154.49-67.74-3.73-2.73-7.37-5.61-10.79-8.52l-1.69-1.46c-.3-.26-.61-.53-.91-.8-.25-.23-.51-.45-.76-.67l-1.84-1.66c-1.01-.94-2.01-1.87-3.01-2.82-.25-.23-.49-.47-.73-.71-.26-.26-.53-.52-.81-.78-.88-.84-1.78-1.73-2.67-2.66-.63-.63-1.25-1.26-1.85-1.91-1.56-1.63-2.95-3.15-4.25-4.63l-.31-.34c-.36-.4-.72-.79-1.06-1.21-6.41-7.39-12.3-15.36-17.48-23.68-.65-1.05-1.27-2.1-1.9-3.14-.62-1.04-1.25-2.11-1.84-3.17l-.62-1.11c-.38-.68-.77-1.36-1.13-2.03-2.61-4.76-5.06-9.79-7.29-14.95-.12-.27-.25-.56-.35-.83-.41-.92-.82-1.88-1.2-2.83-.21-.54-.4-.99-.58-1.43l-.42-1.03c-.83-2.07-1.57-4.13-2.29-6.13l-.73-2.04c-.21-.6-.42-1.2-.61-1.82-.56-1.65-1.11-3.41-1.57-5.06l-.19-.6c-8.24-27.3-8.03-47.85-8.02-48.06-2.62-58.6,15.97-95.79,32.02-116.67,9.1-11.81,16.72-17.36,16.79-17.41,.22-.23,29.08-27.92,106.49-50.49,91.2-26.6,134.61-67.63,135.03-68.04,47.95-55.83,103.59-74.84,141.83-80.95,41.43-6.62,71.93,.06,72.23,.13,41.23,6.95,77.32,22.39,107.25,45.89,23.94,18.8,44.01,42.77,59.64,71.23,26.62,48.46,31.2,93.8,31.24,94.25,7.98,38.01,9.03,76.8,3.1,115.23h0c-3.45,22.42-9.47,44.45-17.91,65.5l-.04,.18c-.86,2.13-1.68,4.07-2.44,5.78-.24,.56-.49,1.12-.74,1.67-.24,.54-.48,1.07-.7,1.59l-.07,.14c-2.25,5.03-4.81,10.02-7.62,14.8-2.06,4.36-4.3,8.67-6.64,12.78-25.04,44.14-63.99,71.94-92.24,87.48-3.44,1.9-6.81,3.66-10.02,5.25-21.63,10.84-37.58,15.4-37.74,15.44-19.97,8.2-44.1,14.3-71.66,18.11-19.84,2.65-40.05,4.21-60.06,4.63-5.71,.14-11.4,.21-17.04,.21ZM547.32,54c-10.58,0-23.05,.73-36.72,2.92-38.06,6.09-93.45,25.03-141.22,80.65-.46,.45-44.02,41.64-135.48,68.31-77.14,22.49-105.85,50.02-106.13,50.3-.13,.1-7.64,5.57-16.64,17.26-15.95,20.75-34.42,57.72-31.82,116.04,0,.23-.21,20.64,7.98,47.78l.19,.61c.47,1.65,1.01,3.39,1.57,5.04,.19,.63,.4,1.21,.6,1.8l.73,2.03c.72,1.99,1.46,4.04,2.28,6.1l.42,1.03c.18,.44,.37,.9,.58,1.44,.38,.94,.77,1.89,1.19,2.82,.11,.28,.22,.55,.34,.81,2.22,5.14,4.66,10.14,7.25,14.87,.36,.67,.74,1.34,1.12,2.02l.63,1.12c.59,1.06,1.21,2.11,1.82,3.15,.62,1.04,1.24,2.08,1.89,3.12,5.15,8.27,11,16.2,17.39,23.56,.34,.42,.69,.8,1.04,1.19l.32,.35c1.29,1.48,2.68,2.98,4.23,4.61,.6,.64,1.22,1.26,1.84,1.89,.89,.93,1.78,1.81,2.64,2.63,.29,.26,.56,.53,.83,.81,.23,.23,.46,.46,.71,.69,1,.95,2,1.88,3,2.81l1.82,1.65c.25,.21,.51,.44,.77,.68,.29,.26,.59,.53,.89,.78l1.69,1.46c3.39,2.89,7.02,5.75,10.77,8.5,.52,.47,49.43,43.71,154.06,67.54,.78,.14,81.12,14.78,166.15,12.67,19.97-.43,40.14-1.98,59.95-4.62,27.47-3.8,51.52-9.88,71.47-18.07,.21-.06,16.07-4.59,37.61-15.39,3.2-1.58,6.56-3.34,9.98-5.23,28.15-15.48,66.93-43.16,91.86-87.1,2.33-4.09,4.55-8.38,6.62-12.76,2.8-4.79,5.36-9.75,7.61-14.78l.07-.13c.2-.47,.44-1.01,.68-1.56,.24-.54,.49-1.09,.73-1.66,.74-1.67,1.54-3.57,2.39-5.66l.04-.18c8.43-21,14.45-43,17.89-65.37h0c5.91-38.32,4.87-76.99-3.1-114.93-.05-.51-4.62-45.67-31.15-93.95-24.47-44.53-73.16-100.91-166.19-116.59-.22-.05-13.86-3.03-35.2-3.03Z" fill="#002346"></path>
  <g>
    <g>
      <polygon points="715.59 385.56 706.59 385.56 706.59 85.56 715.59 98.56 715.59 385.56" fill="#423A36"></polygon>
      <path d="M716.09,386.06h-10V83.96l10,14.44V386.06Zm-9-1h8V98.72l-8-11.56V385.06Z" fill="#002346"></path>
    </g>
    <g>
      <rect x="706.59" y="143.56" width="9" height="9" fill="#002346"></rect>
      <path d="M716.09,153.06h-10v-10h10v10Zm-9-1h8v-8h-8v8Z" fill="#002346"></path>
    </g>
    <g>
      <rect x="706.59" y="184.31" width="9" height="9" fill="#002346"></rect>
      <path d="M716.09,193.81h-10v-10h10v10Zm-9-1h8v-8h-8v8Z" fill="#002346"></path>
    </g>
    <g>
      <rect x="706.59" y="225.06" width="9" height="9" fill="#002346"></rect>
      <path d="M716.09,234.56h-10v-10h10v10Zm-9-1h8v-8h-8v8Z" fill="#002346"></path>
    </g>
    <g>
      <rect x="706.59" y="265.81" width="9" height="9" fill="#002346"></rect>
      <path d="M716.09,275.31h-10v-10h10v10Zm-9-1h8v-8h-8v8Z" fill="#002346"></path>
    </g>
    <g>
      <rect x="706.59" y="306.56" width="9" height="9" fill="#002346"></rect>
      <path d="M716.09,316.06h-10v-10h10v10Zm-9-1h8v-8h-8v8Z" fill="#002346"></path>
    </g>
  </g>
  <g>
    <g>
      <polygon points="655.59 385.56 646.59 385.56 646.59 29.56 655.59 44.56 655.59 385.56" fill="#423A36"></polygon>
      <path d="M656.09,386.06h-10V27.76l10,16.67V386.06Zm-9-1h8V44.7l-8-13.33V385.06Z" fill="#002346"></path>
    </g>
    <g>
      <rect x="646.59" y="143.56" width="9" height="9" fill="#002346"></rect>
      <path d="M656.09,153.06h-10v-10h10v10Zm-9-1h8v-8h-8v8Z" fill="#002346"></path>
    </g>
    <g>
      <rect x="646.59" y="59.56" width="9" height="9" fill="#002346"></rect>
      <path d="M656.09,69.06h-10v-10h10v10Zm-9-1h8v-8h-8v8Z" fill="#002346"></path>
    </g>
    <g>
      <rect x="646.59" y="103.56" width="9" height="9" fill="#002346"></rect>
      <path d="M656.09,113.06h-10v-10h10v10Zm-9-1h8v-8h-8v8Z" fill="#002346"></path>
    </g>
    <g>
      <rect x="646.59" y="184.31" width="9" height="9" fill="#002346"></rect>
      <path d="M656.09,193.81h-10v-10h10v10Zm-9-1h8v-8h-8v8Z" fill="#002346"></path>
    </g>
    <g>
      <rect x="646.59" y="225.06" width="9" height="9" fill="#002346"></rect>
      <path d="M656.09,234.56h-10v-10h10v10Zm-9-1h8v-8h-8v8Z" fill="#002346"></path>
    </g>
    <g>
      <rect x="646.59" y="265.81" width="9" height="9" fill="#002346"></rect>
      <path d="M656.09,275.31h-10v-10h10v10Zm-9-1h8v-8h-8v8Z" fill="#002346"></path>
    </g>
    <g>
      <rect x="646.59" y="306.56" width="9" height="9" fill="#002346"></rect>
      <path d="M656.09,316.06h-10v-10h10v10Zm-9-1h8v-8h-8v8Z" fill="#002346"></path>
    </g>
    <g>
      <rect x="646.59" y="359.56" width="9" height="9" fill="#002346"></rect>
      <path d="M656.09,369.06h-10v-10h10v10Zm-9-1h8v-8h-8v8Z" fill="#002346"></path>
    </g>
  </g>
  <g>
    <g>
      <polygon points="685.59 385.56 676.59 385.56 676.59 58.56 685.59 71.56 685.59 385.56" fill="#423A36"></polygon>
      <path d="M686.09,386.06h-10V56.96l10,14.44V386.06Zm-9-1h8V71.72l-8-11.56V385.06Z" fill="#002346"></path>
    </g>
    <g>
      <rect x="676.59" y="143.56" width="9" height="9" fill="#002346"></rect>
      <path d="M686.09,153.06h-10v-10h10v10Zm-9-1h8v-8h-8v8Z" fill="#002346"></path>
    </g>
    <g>
      <rect x="676.59" y="106.56" width="9" height="9" fill="#002346"></rect>
      <path d="M686.09,116.06h-10v-10h10v10Zm-9-1h8v-8h-8v8Z" fill="#002346"></path>
    </g>
    <g>
      <rect x="676.59" y="184.31" width="9" height="9" fill="#002346"></rect>
      <path d="M686.09,193.81h-10v-10h10v10Zm-9-1h8v-8h-8v8Z" fill="#002346"></path>
    </g>
    <g>
      <rect x="676.59" y="225.06" width="9" height="9" fill="#002346"></rect>
      <path d="M686.09,234.56h-10v-10h10v10Zm-9-1h8v-8h-8v8Z" fill="#002346"></path>
    </g>
    <g>
      <rect x="676.59" y="265.81" width="9" height="9" fill="#002346"></rect>
      <path d="M686.09,275.31h-10v-10h10v10Zm-9-1h8v-8h-8v8Z" fill="#002346"></path>
    </g>
    <g>
      <rect x="676.59" y="306.56" width="9" height="9" fill="#002346"></rect>
      <path d="M686.09,316.06h-10v-10h10v10Zm-9-1h8v-8h-8v8Z" fill="#002346"></path>
    </g>
    <g>
      <rect x="676.59" y="345.56" width="9" height="9" fill="#002346"></rect>
      <path d="M686.09,355.06h-10v-10h10v10Zm-9-1h8v-8h-8v8Z" fill="#002346"></path>
    </g>
  </g>
  <g>
    <path d="M761.62,457.17l-.05,.09c-2.25,5.07-4.77,10-7.56,14.79-2.08,4.4-4.3,8.66-6.64,12.79-21.92,38.64-54.4,64.89-82.54,81.81-3.21,1.94-6.36,3.74-9.43,5.43-.03,.02-.05,.04-.08,.05-3.44,1.9-6.78,3.65-10,5.24h-176.74v-120.2h293.04Z" fill="#e6e7e8"></path>
    <path d="M645.44,577.88h-177.36v-121.2h294.39l-.46,.83c-2.23,5.02-4.78,10.01-7.57,14.8-2.01,4.26-4.25,8.58-6.64,12.78-18.43,32.48-46.26,60.07-82.72,81.99-2.98,1.8-6.07,3.58-9.45,5.44l-.17,.09c-3.34,1.86-6.71,3.62-9.93,5.21l-.1,.05Zm-176.36-1h176.12c3.18-1.57,6.5-3.31,9.88-5.18,3.44-1.9,6.52-3.68,9.49-5.47,36.31-21.83,64.02-49.3,82.36-81.63,2.37-4.18,4.6-8.48,6.62-12.76,2.68-4.6,5.12-9.35,7.28-14.17H469.08v119.2Z" fill="#002346"></path>
  </g>
  <g>
    <path d="M783.45,382.59c-3.45,22.44-9.46,44.41-17.92,65.48v.09H468.57v-65.57h314.88Z" fill="#e6e7e8"></path>
    <path d="M765.53,448.66H468.07v-66.57h315.96l-.09,.58c-3.44,22.42-9.47,44.45-17.91,65.5v.4l-.5,.09Zm-296.46-1h296.09c8.31-20.76,14.27-42.48,17.71-64.57H469.07v64.57Z" fill="#002346"></path>
  </g>
  <g>
    <path d="M765.53,448.07v.09c-.83,2.05-1.65,4-2.43,5.76-.49,1.14-1,2.23-1.44,3.26l-.05,.09H468.61v-9.2h296.92Z" fill="#fff"></path>
    <path d="M761.91,457.77H468.11v-10.2h297.92l-.04,.78c-.86,2.14-1.68,4.08-2.44,5.77-.24,.56-.49,1.12-.73,1.66-.25,.55-.48,1.08-.7,1.6l-.22,.39Zm-292.79-1h292.18c.19-.43,.4-.91,.62-1.4,.24-.54,.49-1.09,.73-1.65,.68-1.53,1.41-3.26,2.18-5.15H469.11v8.2Z" fill="#002346"></path>
  </g>
  <g>
    <path d="M664.83,566.65c-3.21,1.94-6.36,3.74-9.43,5.43h-.07c-3.46,1.92-6.82,3.68-10.05,5.29-21.8,10.92-37.58,15.37-37.58,15.37-21.49,8.82-46,14.56-71.59,18.1l-60,4.63c-86.1,2.17-166.3-12.64-166.3-12.64-106-24.14-154.25-67.62-154.25-67.62-3.78-2.77-7.38-5.62-10.8-8.53l-1.69-1.46c-.57-.48-1.12-1-1.67-1.47l-1.83-1.65c-1-.93-2-1.86-3-2.81-.53-.49-1-1-1.55-1.5-.9-.86-1.79-1.75-2.65-2.64-.63-.63-1.25-1.26-1.85-1.9-1.46-1.53-2.88-3.07-4.24-4.62-.46-.51-.92-1-1.36-1.54-6.43-7.4-12.26-15.31-17.44-23.63-.65-1.05-1.27-2.09-1.89-3.13-.62-1.04-1.24-2.1-1.83-3.16-.59-1.06-1.19-2.1-1.75-3.14-2.74-5-5.15-10-7.27-14.91-.12-.27-.24-.55-.34-.81-.42-.94-.82-1.89-1.2-2.84s-.67-1.64-1-2.46c-1.08-2.69-2-5.34-2.95-7.95-.23-.66-.46-1.31-.67-2-.57-1.68-1.11-3.42-1.57-5.05l145.2-79.54,236.37,101.22,44.26,18.95,151.99,88.01Z" fill="#fff"></path>
    <path d="M458.78,616.19c-78.45,0-148.32-12.72-149.07-12.86-104.93-23.9-154.01-67.3-154.49-67.74-3.68-2.7-7.32-5.57-10.79-8.52l-1.69-1.46c-.31-.26-.61-.53-.92-.8-.25-.23-.5-.45-.75-.67l-1.84-1.66c-1.01-.94-2.01-1.87-3.01-2.82-.25-.23-.49-.47-.73-.71-.26-.26-.53-.52-.81-.78-.87-.83-1.77-1.73-2.67-2.66-.63-.63-1.25-1.26-1.85-1.91-1.56-1.63-2.95-3.15-4.25-4.63l-.29-.32c-.37-.4-.73-.8-1.08-1.24-6.4-7.36-12.28-15.33-17.48-23.68-.64-1.03-1.25-2.06-1.86-3.08-.66-1.1-1.28-2.17-1.87-3.23l-.61-1.09c-.39-.69-.77-1.37-1.14-2.05-2.61-4.76-5.06-9.79-7.29-14.95-.12-.27-.25-.56-.35-.83-.41-.92-.81-1.88-1.2-2.83-.21-.53-.39-.97-.57-1.41l-.43-1.05c-.83-2.07-1.57-4.13-2.29-6.13l-.73-2.04c-.21-.6-.42-1.2-.61-1.82-.56-1.65-1.11-3.41-1.57-5.06l-.11-.38,.35-.19,145.41-79.66,.22,.1,280.63,120.17,152.77,88.46-.72,.44c-2.98,1.8-6.07,3.58-9.45,5.44l-.15,.05c-3.33,1.83-6.69,3.6-9.99,5.25-21.59,10.82-37.51,15.36-37.67,15.4-19.98,8.2-44.1,14.3-71.66,18.11l-60.03,4.63c-5.81,.15-11.62,.22-17.36,.22ZM87.6,438.26c.44,1.52,.94,3.12,1.45,4.64,.19,.63,.4,1.21,.6,1.8l.73,2.03c.72,1.99,1.45,4.04,2.28,6.09l.43,1.05c.18,.44,.36,.88,.57,1.41,.38,.94,.77,1.89,1.19,2.82,.11,.28,.22,.55,.34,.81,2.22,5.14,4.66,10.14,7.25,14.87,.37,.68,.75,1.36,1.13,2.04l.62,1.1c.59,1.06,1.21,2.11,1.82,3.15,.64,1.08,1.25,2.09,1.89,3.12,5.17,8.3,11.02,16.23,17.39,23.57,.35,.43,.7,.82,1.06,1.21l.3,.33c1.3,1.48,2.68,2.98,4.23,4.61,.6,.64,1.22,1.26,1.84,1.89,.9,.93,1.79,1.82,2.64,2.63,.29,.26,.56,.53,.83,.81,.23,.23,.46,.46,.71,.69,1,.95,2,1.88,3,2.81l1.82,1.65c.25,.21,.5,.44,.76,.67,.29,.26,.59,.53,.9,.79l1.69,1.46c3.44,2.93,7.07,5.79,10.77,8.5,.52,.47,49.43,43.71,154.07,67.54,.78,.14,81.13,14.78,166.18,12.63l59.97-4.63c27.44-3.8,51.49-9.88,71.44-18.06,.21-.06,16.05-4.58,37.55-15.35,3.32-1.65,6.69-3.43,10.03-5.27l.15-.05c3.06-1.69,5.88-3.31,8.61-4.94l-151.26-87.59-44.21-18.92-236.15-101.12-144.64,79.23Z" fill="#002346"></path>
  </g>
  <g>
    <path d="M503.91,487.05c36,19.27,77,50.19,77,50.19l1.79,12.13c1.35,20.66-31.44,34.13-31.44,34.13l-148,66.93c-25.88,13-44.64-8.09-44.64-8.09l-55.72-39.52c-22.46-15.72-23.1-34.68-23.1-34.68-3.8-24.34,19.87-25.49,19.87-25.49l51.51-13.5,41.07-32,111.66-10.1Z" fill="#423A36"></path>
    <path d="M386.41,655.13c-16.33,0-27.36-11.59-28.12-12.42l-55.68-39.49c-22.4-15.68-23.3-34.88-23.31-35.07-1.16-7.43,.12-13.52,3.81-18.05,5.84-7.17,15.58-7.9,16.49-7.95l51.36-13.46,41.1-32.03h.15s111.81-10.13,111.81-10.13l.13,.07c35.62,19.07,76.65,49.92,77.07,50.23l.16,.12,1.82,12.33c1.36,20.82-30.39,34.11-31.74,34.67l-147.98,66.92c-6.12,3.07-11.86,4.25-17.06,4.25Zm6.03-157.5l-41.04,31.97-.1,.03-51.61,13.52c-.1,0-10.11,.58-15.82,7.6-3.5,4.3-4.71,10.13-3.58,17.32,.01,.25,.92,18.97,22.89,34.35l55.81,39.6c.19,.21,18.81,20.65,44.04,7.97l148.02-66.94c.34-.14,32.46-13.58,31.15-33.64l-1.76-11.89c-2.87-2.15-42.26-31.53-76.64-49.95l-111.36,10.07Z" fill="#002346"></path>
  </g>
  <g>
    <path d="M435.86,571.05l26.57-39.85,36.1-48.46,7.48-2.93s-2.92,20.66-14.74,48.57c0,0-1.37,27.78-5.74,35l-29.53,4.77,4.36-15.09s-.03-.05-.05-.03l-11.57,16.17-12.88,1.85Z" fill="#f2b3c1"></path>
    <path d="M434.83,571.7l27.19-40.78,36.2-48.6,8.41-3.3-.12,.85c-.03,.21-3.06,21-14.74,48.61-.1,2.03-1.5,28.03-5.81,35.15l-.12,.2-.23,.04-30.31,4.9,3.82-13.22-10.1,14.11-14.2,2.04Zm64.02-88.55l-36.01,48.35-25.93,38.9,11.56-1.66,11.69-16.34,.8,.37-.11,.44-4.14,14.33,28.52-4.61c4.17-7.33,5.54-34.29,5.55-34.57l.04-.17c10.32-24.38,13.87-43.41,14.57-47.59l-6.53,2.56Z" fill="#002346"></path>
  </g>
  <g>
    <path d="M700.82,513.93h-93.73c-4.77,0-8.63-3.86-8.63-8.63h0l-.06-42.09c.72-12.93-4-15.15-4-15.15l-95.42-65.47h129.67l72.61,62.24c7.26,9.72,7.11,46.61,6.7,62.14-.1,3.87-3.27,6.96-7.14,6.96Z" fill="#2A4A30"></path>
    <path d="M700.83,514.43h-93.73c-5.03,0-9.13-4.1-9.13-9.13l-.06-42.09c.69-12.36-3.67-14.68-3.72-14.7l-96.81-66.42h131.47l72.83,62.44c7.36,9.86,7.21,46.96,6.8,62.45-.11,4.18-3.46,7.45-7.64,7.45Zm-200.23-131.34l94.09,64.56c.14,.06,4.95,2.47,4.22,15.59l.06,42.06c0,4.48,3.65,8.13,8.13,8.13h93.73c3.63,0,6.55-2.84,6.64-6.47,.41-15.37,.57-52.11-6.57-61.78l-72.43-62.08h-127.87Z" fill="#002346"></path>
  </g>
  <g>
    <path d="M607.67,513.93h-.58c-4.77,0-8.63-3.86-8.63-8.63h0l-.06-42.09c.72-12.93-4-15.15-4-15.15l-95.42-65.47h11.12l87.36,62.33c3.84,2.75,6.24,7.08,6.54,11.79l3.67,57.22Z" fill="#fff"></path>
    <path d="M608.21,514.43h-1.11c-5.03,0-9.13-4.1-9.13-9.13l-.06-42.09c.69-12.36-3.67-14.68-3.72-14.7l-96.81-66.42h12.89l.13,.09,87.36,62.33c3.98,2.85,6.44,7.28,6.75,12.17l3.7,57.75Zm-107.61-131.34l94.09,64.56c.14,.06,4.95,2.47,4.22,15.59l.06,42.06c0,4.48,3.65,8.13,8.13,8.13h.05l-3.64-56.69c-.29-4.58-2.6-8.74-6.33-11.42l-87.23-62.24h-9.35Z" fill="#002346"></path>
  </g>
  <g>
    <path d="M548.12,571.98l-7.23-.63c8-2,5.79-5.45,5.79-5.45l-29-4.15c-13.19-2.81-51.48,4.9-51.48,4.9l-34.33,5c-30.11,2.12-51.41,8-51.41,8-4-17.62,1.41-43.7,1.41-43.7,2.58-6.81,6.57-23.48,6.57-23.48,3.93-10.65,5.23-25.52,5.67-33.56,.31-5.73,2.31-11.23,5.74-15.83,8.53-11.4,23.27-23.15,23.27-23.15v-.08c-.06-.07-.11-.16-.16-.23l-.12-.16c-1.5-2.17-8.53-11.42-25-20.73l-.87-.48c-2.47-1.32-5-2.57-7.63-3.78-4.55-2.11-9.26-4-14-5.8-.1-.03-.2-.07-.3-.11-5.18-1.79-10.87-3.47-17.09-5,.34-.15,.69-.28,1.05-.41-1.55-.47-3.07-.92-4.57-1.35-1.75-.49-3.45-1-5.12-1.43h0c-15.44-4.15-27-6.1-27-6.1-5.95-1.67-11.5-3.42-16.65-5.26-4.71,8.64-9.51,15.19-13.44,15.74h-.13c-2.25-.16-31.87-2.44-29.28-12.84,0,0,1.45-6.86,7.31-19.44-7.79-4.59-15.02-10.09-21.52-16.37h0c-1.32-1.28-2.56-2.65-3.7-4.09-31.55-2.87-47.88,18.9-54.67,33.23-2.78,6.01-4.55,12.44-5.23,19.03-1.58,14-6.69,22.44-6.69,22.44l34.47,20.84c28.4,14.75,39.21,27.83,39.21,27.83,10.43,10.04,21.82,19.04,34,26.87,19.43,13.87,47.49,18.77,47.49,18.77,1.35,4.06,4.74,68.29,4.74,68.29,.12,2.26,.27,4.26,.42,6.05h0c1.2,13.12,3.28,14.11,3.28,14.11,14.66,13.1,56.88,0,56.88,0,27.13-5.59,68.88-23.58,68.88-23.58,3.33-1.93,7.18-2.76,11-2.37,10.48,3.88,25.1,1,25.1,1,5.33-.25,10.9,4.44,10.9,4.44,5.8,3.23,8.83,2.85,10.4,1.78,.84-.57,1.43-1.43,1.65-2.42l-12.22-6.05c-.32-.16-.21-.63,.15-.63l16.22-.12c12.43,1,11.79-4.06,11.79-4.06,5.33-.92,5.45-5.48,5.45-5.48Z" fill="#f2b3c1"></path>
    <path d="M363.27,615.83c-8.53,0-16.61-1.49-21.65-5.96-.54-.36-2.38-2.46-3.48-14.47-.18-2.2-.32-4.13-.42-6.07-.03-.63-3.28-61.89-4.64-67.88-3.15-.59-29.18-5.81-47.38-18.8-12.16-7.81-23.63-16.88-34.06-26.92-.15-.17-11.13-13.22-39.09-27.75l-34.93-21.11,.26-.43c.05-.08,5.07-8.52,6.62-22.24,.69-6.65,2.46-13.11,5.27-19.18,5.26-11.11,21.17-36.61,55.17-33.52l.21,.02,.13,.17c1.13,1.42,2.36,2.78,3.66,4.04,6.47,6.25,13.68,11.73,21.43,16.3l.39,.23-.19,.41c-5.76,12.37-7.26,19.26-7.27,19.33-.35,1.39-.09,2.63,.77,3.82,3.88,5.35,19.46,7.81,28.06,8.42h.09c2.22-.32,6.34-3.26,13-15.48l.2-.38,.4,.14c5.12,1.83,10.71,3.6,16.62,5.25,.06,0,11.71,1.99,27,6.1,1.13,.29,2.28,.62,3.45,.96,.55,.16,1.11,.32,1.67,.47,1.51,.43,3.03,.88,4.58,1.35l1.44,.44-.97,.35c5.49,1.39,10.73,2.95,15.59,4.63,.12,.05,.2,.08,.28,.1,5.75,2.18,10.08,3.97,14.07,5.83,2.7,1.24,5.21,2.48,7.66,3.79l.88,.48c16.35,9.24,23.4,18.32,25.17,20.88l.18,.26s.04,.06,.06,.09l.12,.14v.43l-.19,.23c-.15,.12-14.79,11.84-23.18,23.06-3.38,4.53-5.33,9.91-5.64,15.56-.44,8.01-1.76,23.03-5.7,33.71-.02,.11-4.01,16.72-6.57,23.48-.03,.18-5.22,25.6-1.5,42.91,3.42-.89,23.72-5.96,51-7.88l34.29-5c1.54-.31,38.52-7.69,51.66-4.89l29.19,4.18,.12,.19s.68,1.09,.15,2.42c-.48,1.21-1.76,2.22-3.8,3.02l5.18,.45v.47s-.2,4.75-5.48,5.88c-.06,.47-.27,1.24-.98,1.99-1.8,1.89-5.62,2.61-11.33,2.15l-15.48,.12,11.95,5.91-.09,.38c-.25,1.11-.91,2.08-1.86,2.72-2.32,1.58-5.99,.99-10.92-1.76-.13-.1-5.57-4.61-10.63-4.38-.53,.11-14.75,2.84-25.24-1.01-3.72-.36-7.4,.43-10.64,2.31-.47,.21-42.16,18.1-69.03,23.64-1.11,.35-19.2,5.87-35.64,5.87Zm-184.28-189.3l34.05,20.59c28.14,14.61,39.23,27.81,39.34,27.94,10.34,9.96,21.76,18.97,33.89,26.77,19.14,13.66,47.03,18.65,47.31,18.7l.29,.05,.09,.28c1.36,4.08,4.63,65.8,4.76,68.42,.1,1.93,.24,3.85,.42,6.03,1.12,12.21,2.96,13.67,3.04,13.72,14.37,12.82,56.06,.08,56.47-.05,26.82-5.53,68.41-23.38,68.83-23.56,3.39-1.97,7.29-2.81,11.25-2.41l.12,.03c10.22,3.79,24.68,1.01,24.83,.98,5.54-.27,11.09,4.35,11.32,4.55,5.62,3.12,8.44,2.68,9.8,1.75,.63-.43,1.09-1.04,1.34-1.74l-11.85-5.86c-.35-.17-.53-.56-.44-.94,.09-.38,.42-.64,.81-.65l16.22-.12c6.73,.54,9.44-.69,10.54-1.81,.83-.85,.76-1.66,.76-1.69l-.05-.46,.46-.09c3.88-.67,4.77-3.42,4.98-4.53l-9.69-.84,2.9-.72c3.94-.98,5.19-2.28,5.56-3.18,.23-.58,.12-1.07,.02-1.32l-28.74-4.11c-12.97-2.76-50.93,4.82-51.31,4.89l-34.36,5c-29.75,2.1-51.14,7.93-51.35,7.99l-.5,.14-.12-.51c-3.98-17.52,1.35-43.65,1.41-43.91,2.56-6.78,6.53-23.33,6.57-23.5,3.91-10.61,5.22-25.52,5.66-33.47,.32-5.84,2.34-11.41,5.84-16.1,7.76-10.37,20.78-21.15,23.02-22.97l-.03-.05c-1.25-1.81-8.27-11.23-24.85-20.59l-.87-.48c-2.42-1.29-4.91-2.53-7.6-3.76-3.97-1.84-8.28-3.63-13.97-5.79-.09-.02-.21-.07-.32-.12-5.25-1.81-10.99-3.49-17.01-4.97l-1.43-.35,1.09-.48c-1.08-.32-2.14-.63-3.2-.94-.56-.16-1.12-.32-1.67-.48-1.16-.33-2.3-.66-3.43-.95-15.24-4.1-26.84-6.07-26.96-6.09-5.82-1.63-11.3-3.35-16.33-5.14-5.49,10-9.94,15.11-13.6,15.62h-.2c-2.45-.17-23.79-1.88-28.83-8.83-1.03-1.42-1.34-2.98-.93-4.63,.01-.05,1.49-6.89,7.15-19.12-7.67-4.56-14.81-10.01-21.22-16.21-1.28-1.24-2.49-2.58-3.61-3.97-33.22-2.9-48.8,22.07-53.96,32.97-2.76,5.97-4.51,12.32-5.18,18.87-1.38,12.19-5.47,20.3-6.51,22.21Z" fill="#002346"></path>
  </g>
  <path d="M344.09,433.56c-.08,0-.16-.02-.23-.06l-115-60c-.24-.13-.34-.43-.21-.67,.13-.24,.43-.34,.67-.21l115,60c.24,.13,.34,.43,.21,.67-.09,.17-.26,.27-.44,.27Z" fill="#002346"></path>
  <path d="M270.12,372.45c11.26,6.71,23.16,12.25,35.54,16.55-4.71,8.64-9.51,15.19-13.44,15.74h-.13c-2.25-.16-31.87-2.44-29.28-12.84,0,0,1.45-6.87,7.31-19.45Z" fill="#f9b499"></path>
  <path d="M359,403.15c5.19,1.57,10.62,3.36,16,5.37-5.18-1.79-10.87-3.47-17.09-5,.39-.11,.74-.24,1.09-.37Z" fill="#f9b499"></path>
  <path d="M422.8,439.42c-1.5-2.17-8.53-11.42-25-20.73,10.68,5.77,19.77,12.66,25,20.73Z" fill="#f9b499"></path>
  <g>
    <path d="M500.71,359.52c-8.87,13.44-17.71,25.86-17.71,25.86,0,0,16.22,42.09,7.59,68.71l-67.44-14.2v-.08l-.16-.23-.12-.16c-1.5-2.17-8.53-11.42-25-20.73l-.87-.48c-6.91-3.8-14.14-7.01-21.6-9.58-.1-.03-.2-.07-.3-.11-5.18-1.79-10.87-3.47-17.09-5,.34-.15,.69-.28,1.05-.41-3.35-1-6.6-1.94-9.69-2.78-.3-9.98-1.56-19.92-3.75-29.66v-.08c-1-4.29-2.45-8.46-4.33-12.44,0,0,0-.02-.01-.03-.74-1.52-1.89-2.81-3.27-3.78-3.37-2.36-10.18-7.34-12.92-10.83,0,0-9.47,27.32-19.36,45.45-4.71,8.64-9.51,15.19-13.44,15.74h-.13c-2.25-.16-31.87-2.44-29.28-12.84,0,0,1.45-6.86,7.31-19.44,1.6-3.47,3.54-7.36,5.88-11.66,0,0,27.38-50.7,30.76-73.69l4.39-23.66s5.9-32.66,20.36-36.53c.45-.12,.91-.21,1.37-.27,15.46-2.08,55.33-6.14,55.33-6.14,0,0-.83-3.72,8,1.86,0,0,13.18,5.58,25.36,6.59,0,0,18.5,1,30.17,20.8l45.38,81.63s9.4,17.22,3.53,28.17Z" fill="#2A4A30"></path>
    <path d="M490.93,454.67l-68.28-14.38v-.33l-.18-.25c-1.25-1.81-8.27-11.23-24.85-20.59l-.86-.48c-6.87-3.78-14.11-6.99-21.52-9.54-.1-.03-.22-.07-.34-.12-5.25-1.81-10.99-3.49-17.01-4.97l-1.43-.35,1.08-.47c-3.09-.91-5.82-1.69-8.3-2.37l-.36-.1v-.37c-.31-9.93-1.57-19.87-3.75-29.57v-.11c-.98-4.21-2.43-8.37-4.29-12.31-.7-1.43-1.77-2.67-3.12-3.61-3.46-2.42-9.46-6.83-12.46-10.25-1.68,4.73-10.27,28.5-19.1,44.69-5.58,10.24-10.1,15.48-13.81,16h-.2c-2.45-.17-23.79-1.88-28.83-8.83-1.03-1.42-1.34-2.98-.93-4.63,.01-.05,1.52-7.04,7.34-19.53,1.72-3.73,3.7-7.66,5.89-11.69,.27-.5,27.38-50.88,30.7-73.52l4.39-23.68c.24-1.34,6.12-33.02,20.72-36.92,.47-.12,.95-.22,1.43-.28,14.4-1.94,50.41-5.64,54.89-6.09,.04-.33,.2-.71,.56-.97,1.17-.83,3.86,.11,8.21,2.85,.06,.02,13.18,5.52,25.13,6.51,.17,0,18.89,1.24,30.56,21.04l45.39,81.64c.39,.72,9.47,17.59,3.53,28.65l-.02,.04c-8.14,12.33-16.35,23.94-17.57,25.66,1.32,3.56,15.74,43.38,7.5,68.79l-.14,.43Zm-67.41-15.22l66.74,14.05c8.17-26.17-7.56-67.53-7.72-67.95l-.1-.25,.16-.22c.09-.12,8.93-12.55,17.69-25.83,5.66-10.59-3.45-27.5-3.54-27.67l-45.38-81.63c-11.4-19.33-29.58-20.53-29.76-20.54-12.13-1.01-25.4-6.57-25.53-6.63-5.69-3.59-6.97-3.06-7.17-2.92-.21,.15-.15,.49-.14,.49l.12,.55-.56,.06c-.4,.04-40.04,4.08-55.31,6.14-.45,.06-.88,.15-1.31,.26-13.99,3.74-19.94,35.81-20,36.14l-4.39,23.66c-3.35,22.8-30.54,73.33-30.81,73.84-2.18,4.01-4.16,7.92-5.87,11.63-5.76,12.37-7.26,19.27-7.27,19.33-.35,1.39-.09,2.63,.77,3.82,3.88,5.35,19.46,7.81,28.06,8.42h.09c2.22-.32,6.34-3.26,13-15.48,9.76-17.88,19.23-45.1,19.33-45.38l.3-.87,.57,.72c2.76,3.51,9.88,8.68,12.82,10.73,1.49,1.04,2.67,2.41,3.44,3.97,1.91,4.04,3.38,8.26,4.38,12.57v.11c2.17,9.6,3.43,19.49,3.75,29.36,2.76,.75,5.82,1.63,9.35,2.68l1.45,.43-.98,.36c5.49,1.39,10.73,2.95,15.59,4.63,.12,.05,.2,.08,.28,.1,7.49,2.58,14.78,5.81,21.7,9.62l.87,.48c16.35,9.24,23.4,18.32,25.17,20.88l.23,.32Z" fill="#002346"></path>
  </g>
  <g>
    <path d="M389.82,222.1c-3.64,18.16-31.82,63.41-31.82,63.41-8.66-19.27-12-56-12-56,20.07-.34,25.27-20.77,25.27-20.77,1.4-.98,2.69-2.1,3.85-3.36,1.75-1.81,3.16-3.52,3.16-3.52,.86,10.57,11.54,20.24,11.54,20.24Z" fill="#f2b3c1"></path>
    <path d="M357.93,286.57l-.38-.86c-8.6-19.12-12.01-55.79-12.04-56.16l-.05-.54h.54c19.44-.34,24.74-20.2,24.79-20.4l.05-.18,.15-.11c1.37-.95,2.64-2.06,3.77-3.29,1.72-1.78,3.13-3.48,3.14-3.5l.78-.95,.1,1.23c.83,10.25,11.27,19.82,11.38,19.91l.21,.19-.06,.28c-3.62,18.04-31.6,63.12-31.89,63.58l-.5,.8Zm-11.38-56.57c.45,4.51,3.83,36.53,11.53,54.44,3.77-6.14,27.68-45.47,31.2-62.16-1.5-1.41-9.98-9.74-11.36-19.21-.59,.67-1.46,1.66-2.43,2.67-1.13,1.23-2.4,2.35-3.78,3.32-.59,2.04-6.39,20.29-25.15,20.95Z" fill="#002346"></path>
  </g>
  <g>
    <rect x="383.09" y="444.06" width="108" height="89" rx="44.5" ry="44.5" fill="#f2b3c1"></rect>
    <path d="M446.59,533.56h-19c-24.81,0-45-20.19-45-45s20.19-45,45-45h19c24.81,0,45,20.19,45,45s-20.19,45-45,45Zm-19-89c-24.26,0-44,19.74-44,44s19.74,44,44,44h19c24.26,0,44-19.74,44-44s-19.74-44-44-44h-19Z" fill="#002346"></path>
  </g>
  <g>
    <path d="M519,462.78c.05,5.9-2.16,11.59-6.19,15.9-3.58,3.89-8.61,6.11-13.89,6.14-11.1,0-20.08-9.86-20.08-22,0-11.46,7.95-20.87,18.13-21.94,.65-.08,1.3-.11,1.95-.11,11.08-.04,20.08,9.88,20.08,22.01Z" fill="#002346"></path>
    <path d="M498.93,485.32c-11.35,0-20.58-10.09-20.58-22.5,0-11.68,7.99-21.32,18.58-22.44,.66-.08,1.34-.11,2.01-.11,5.12,0,10.03,2.06,13.84,5.84,4.28,4.27,6.74,10.34,6.74,16.66,.05,6.05-2.19,11.82-6.32,16.24-3.65,3.98-8.85,6.27-14.25,6.3Zm-.09-44.05c-.6,0-1.21,.04-1.8,.11-10.09,1.06-17.69,10.28-17.69,21.44,0,11.86,8.78,21.5,19.58,21.5,5.12-.03,10.05-2.2,13.52-5.98,3.96-4.24,6.11-9.76,6.06-15.56h0c0-6.06-2.35-11.88-6.45-15.96-3.61-3.6-8.29-5.59-13.13-5.55h-.09Z" fill="#002346"></path>
  </g>
  <g>
    <path d="M252.51,359.73c-2.76-2.35-5.31-4.94-7.62-7.74,0,0-32.84-6.34-52.89,29.81,0,0-4.64,6.21-8.14,29.61,0,0-1.46,8.88-5.51,15.3,0,0-8.46,19.94-40.57,27.38l-38.2,15.48c-2.03-3.57-4.07-7.58-6-12-3.18-7.31-5.33-14.16-6.81-20.16-3.06-9.74-5.65-21.26-7.12-34.28-.96-8.53-.88-13.62-.88-13.62-2.66-59.53,16.84-96.76,31.92-116.37,4.48,4.32,25.13,22.7,62.64,33.16,0,0,38.74,3,67.2,31.78,0,0,6.75,5.43,10.43,11.52,.06,.09,.12,.19,.17,.29,.16,.27,.31,.53,.45,.8,.01,.04,.03,.07,.05,.1,1.65,3.09,2.37,6.27,.88,8.94Z" fill="#423A36"></path>
    <path d="M99.37,470.19l-.22-.38c-2.21-3.89-4.24-7.95-6.02-12.05-2.83-6.51-5.13-13.32-6.84-20.24-3.37-10.72-5.77-22.28-7.13-34.34-.95-8.47-.89-13.63-.89-13.69-2.62-58.6,15.97-95.79,32.02-116.67l.34-.44,.4,.39c5.35,5.16,25.66,22.79,62.43,33.04,.29,.01,39.16,3.33,67.42,31.91,.24,.19,6.82,5.52,10.5,11.61,.06,.09,.13,.2,.19,.32,.15,.25,.31,.52,.45,.8l.05,.1c1.99,3.73,2.28,6.89,.88,9.42l-.3,.53-.46-.39c-2.73-2.32-5.27-4.9-7.56-7.66-2.59-.41-33.3-4.47-52.19,29.59-.08,.12-4.65,6.52-8.08,29.44-.06,.37-1.52,9.06-5.58,15.49-.05,.13-8.89,20.19-40.88,27.6l-38.53,15.62Zm11.38-196.31c-15.87,20.83-34.07,57.69-31.48,115.6,0,.08-.06,5.19,.88,13.59,1.35,12,3.74,23.5,7.1,34.18,1.7,6.89,3.98,13.65,6.8,20.11,1.71,3.93,3.65,7.83,5.76,11.57l37.79-15.31c31.54-7.31,40.21-26.91,40.3-27.11,3.98-6.33,5.46-15.1,5.48-15.19,3.48-23.25,8.04-29.57,8.23-29.83,19.96-35.99,53.06-30.06,53.38-30l.18,.03,.11,.14c2.15,2.6,4.52,5.04,7.07,7.26,.9-2.12,.51-4.78-1.16-7.9-.02-.03-.06-.1-.08-.17-.11-.2-.25-.45-.41-.71-.06-.11-.1-.19-.16-.27-3.6-5.96-10.26-11.35-10.33-11.41-28.05-28.36-66.54-31.64-66.92-31.67-36.22-10.09-56.59-27.27-62.54-32.91Z" fill="#002346"></path>
  </g>
  <g>
    <path d="M412.87,185.78c.03,10.05-8.08,18.22-18.13,18.25-10.05,.03-18.22-8.08-18.25-18.13-.03-10.05,8.08-18.22,18.13-18.25,.02,0,.03,0,.05,0,9.99-.07,18.13,7.97,18.2,17.96,0,.06,0,.11,0,.17Z" fill="#002346"></path>
    <path d="M394.68,204.53c-4.97,0-9.64-1.93-13.17-5.43-3.54-3.52-5.5-8.21-5.52-13.2-.02-4.99,1.91-9.69,5.43-13.23,3.52-3.54,8.21-5.5,13.2-5.52h.13c4.96,0,9.59,1.9,13.09,5.35,3.53,3.49,5.5,8.14,5.53,13.1v.17c.03,10.31-8.32,18.72-18.63,18.75h-.06Zm.12-36.38h-.12c-4.78,.02-9.21,1.87-12.54,5.22s-5.16,7.8-5.14,12.53c.02,4.73,1.87,9.16,5.22,12.49,3.34,3.32,7.76,5.14,12.47,5.14h.06c9.75-.03,17.66-7.99,17.63-17.75v-.17c-.03-4.7-1.89-9.1-5.23-12.4-3.31-3.27-7.69-5.07-12.34-5.07Z" fill="#002346"></path>
  </g>
  <g>
    <rect x="302.42" y="134.11" width="68.96" height="97.25" rx="34.48" ry="34.48" transform="translate(-46.23 192.93) rotate(-30)" fill="#f2b3c1"></rect>
    <path d="M344.03,229.95c-12.1,0-23.88-6.27-30.35-17.48l-14.14-24.5c-9.64-16.7-3.9-38.14,12.8-47.78,16.7-9.64,38.14-3.9,47.78,12.8l14.14,24.5c9.64,16.7,3.9,38.14-12.8,47.78h0c-5.49,3.17-11.5,4.68-17.43,4.68Zm-14.26-93.44c-5.76,0-11.59,1.46-16.93,4.54-16.23,9.37-21.81,30.19-12.44,46.42l14.14,24.5c9.37,16.23,30.19,21.81,46.42,12.44l.25,.43-.25-.43c16.23-9.37,21.81-30.19,12.44-46.42l-14.14-24.5c-6.29-10.89-17.73-16.98-29.49-16.98Z" fill="#002346"></path>
  </g>
  <g>
    <path d="M375.59,209.56s5-14-3.35-23.8l-9.92-11s-11.06,1.21-17.3-13.33c0,0,1.7,21.29,15.91,19.64,0,0-10.57,7.21-22-6.74-2.05-2.56-3.7-5.41-4.9-8.46-1.34-3.24-4.26-8.36-9.8-10,.28,.3,4.56,5.16,6.23,15.23,0,0,2.08,10.74,10.74,13.86,0,0-10.74,2.08-17-13.86-1.13-2.87-2.6-5.6-4.36-8.13-3.31-4.67-8.29-8.84-14.27-4.82-3.56,2.4-5.57,6.51-5.68,10.8-.22,8.71,1.3,17.39,4.47,25.54,0,0-.6,5-6.48,5.36,0,0,5.54-10-2.77-22.17,0,0-12.33-13.72,2.47-27.12,0,0,2.22-15.51,33.19-20.76,10.5-1.78,21.36-.72,31.12,3.55,11.42,4.99,23.58,15.13,24.62,35.69,.03,.05,9.07,25.15-10.93,40.53Z" fill="#002346"></path>
    <path d="M374.55,211l.57-1.6c.05-.14,4.8-13.85-3.26-23.31l-9.75-10.81c-1.61,.06-10.26-.15-16.12-10.72,.74,3.86,2.57,10.3,6.76,13.74,2.28,1.87,5.01,2.64,8.13,2.28l2.02-.23-1.68,1.14c-.11,.08-11.08,7.3-22.67-6.84-2.08-2.61-3.76-5.5-4.98-8.59-1.09-2.62-3.48-7.04-7.86-9.09,1.48,2.14,4.03,6.72,5.25,14.05,.02,.09,2.13,10.49,10.42,13.47l1.71,.62-1.78,.35c-.11,.02-11.22,1.97-17.56-14.17-1.12-2.83-2.57-5.53-4.31-8.03-4.4-6.21-8.97-7.79-13.58-4.69-3.31,2.23-5.35,6.11-5.46,10.4-.22,8.7,1.28,17.23,4.44,25.34l.05,.12v.12c-.02,.05-.74,5.42-6.96,5.8l-.91,.06,.44-.8c.05-.1,5.28-9.89-2.75-21.65-.09-.09-12.37-14.12,2.42-27.66,.36-1.87,4.04-15.99,33.57-21,10.94-1.86,21.79-.62,31.4,3.58,10.76,4.71,23.82,14.78,24.92,36.06,.83,2.28,8.4,26-11.12,41.01l-1.35,1.03Zm-12.03-36.75l10.09,11.19c6.81,7.98,4.92,18.78,3.91,22.75,17.99-15.12,9.63-38.72,9.54-38.96l-.07-.11,.03-.05c-1.05-20.81-13.81-30.65-24.32-35.25-9.42-4.12-20.08-5.34-30.83-3.51-30.18,5.12-32.75,20.19-32.78,20.34l-.03,.18-.13,.12c-14.25,12.9-2.93,25.87-2.44,26.42,7.05,10.32,4.33,19.22,3.22,21.91,4.21-.65,5.02-4.02,5.15-4.71-3.18-8.2-4.68-16.81-4.46-25.61,.12-4.61,2.32-8.8,5.9-11.2,5.07-3.41,10.24-1.7,14.95,4.94,1.78,2.56,3.27,5.33,4.42,8.24,4.44,11.29,11.03,13.35,14.36,13.61-7.16-3.92-8.98-12.92-9.06-13.33-1.69-10.16-6.06-14.94-6.1-14.98l-1.25-1.34,1.76,.52c5.81,1.72,8.84,7.18,10.12,10.29,1.19,3.01,2.81,5.82,4.83,8.34,8.21,10.02,15.82,8.93,19.32,7.62-2.44-.15-4.63-1.01-6.54-2.57-6.54-5.38-7.55-17.1-7.59-17.6l-.24-3.03,1.2,2.8c6.01,14,16.35,13.07,16.79,13.03l.25-.03Z" fill="#002346"></path>
  </g>
  <path d="M368.59,432.44c-1.74,2.52-3.32,5.14-4.72,7.86-3.53,4.57-8.88,7.35-14.65,7.61,1.83-.16,5.28-1.55,10.9-7.64l8.47-7.83Z" fill="none"></path>
  <g>
    <path d="M313.58,488.65c-1,.73-2.38,.64-3.28-.2l-18.4-17.18c-.09-.07-.22-.06-.3,.02-.05,.06-.06,.14-.03,.22l1.8,4.32c1.44,3.47,3.72,6.52,6.62,8.91l3.01,2.46c4.85,4.85,3.08,8,1.47,9.45-.7,.65-1.77,.65-2.47,0l-8.74-9c3.38,17.58-9.14,0-9.14,0-6.75,.33-7.77-6.77-7.77-6.77l-11.85-34.57c-3.72-12.5-1.85-26-1.85-26l5.81-28.35,.68-3.28c.06-.3,.29-.55,.59-.63,12.07-3.25,20.7,4.32,24.17,8.19,1.07,1.19,1.28,2.91,.53,4.32l-13.69,26.16h0c3,1.69,16.9,13.52,16.9,13.52,4.37,3.59,9.56,6.04,15.11,7.15l.72,.12c.78,.13,1.3,.87,1.17,1.65-.01,.07-.03,.14-.05,.21-.68,2.17-2.44,3.82-4.64,4.38-2.48,.74-5.14,.49-7.44-.69-2.01-1.01-4.12-1.8-6.3-2.35-.82-.2-1.38-.29-1.55-.32h-.06c2.48,4.72,3.88,12.56,4.43,16.37,.22,1.46,.95,2.79,2.07,3.75l10.4,9c4.82,5.39,3.65,7.98,2.08,9.14Z" fill="#f2b3c1"></path>
    <path d="M303.24,497.63c-.57,0-1.14-.21-1.58-.62l-7.63-7.85c.62,3.99,.3,6.12-.99,6.67-2.6,1.11-7.8-5.76-9.18-7.68-6.92,.17-8-7.13-8.01-7.21l-11.83-34.48c-3.71-12.48-1.89-26.09-1.87-26.23l6.5-31.66c.1-.49,.47-.88,.95-1.01,12.5-3.36,21.42,4.71,24.67,8.34,1.2,1.34,1.44,3.3,.6,4.89l-13.47,25.74c3.66,2.35,16.02,12.86,16.56,13.32,4.29,3.52,9.44,5.96,14.88,7.04l.7,.12c.51,.09,.95,.36,1.25,.78,.3,.42,.42,.93,.33,1.44-.02,.1-.04,.19-.07,.29-.74,2.34-2.61,4.1-4.99,4.71-2.59,.78-5.37,.52-7.79-.73-1.97-.99-4.05-1.77-6.19-2.31-.22-.05-.42-.1-.6-.14,2.32,5.01,3.59,12.51,4.04,15.63,.2,1.34,.87,2.56,1.9,3.44l10.4,9c2.6,2.91,3.8,5.34,3.6,7.28-.11,1.06-.65,1.98-1.55,2.64h0c-1.19,.87-2.84,.77-3.92-.24l-17.41-16.26,1.28,3.08c1.41,3.38,3.65,6.39,6.48,8.71l3.01,2.46c2.28,2.28,3.39,4.42,3.34,6.41-.05,1.8-1.03,3.06-1.85,3.8-.44,.41-1,.61-1.57,.61Zm-10.78-11.53l9.91,10.2c.48,.45,1.27,.45,1.77-.02,.68-.61,1.49-1.64,1.53-3.09,.04-1.7-.97-3.6-3.01-5.64l-2.97-2.43c-2.96-2.42-5.3-5.57-6.77-9.1l-1.8-4.32c-.1-.25-.06-.53,.11-.73,.12-.15,.3-.23,.48-.25,.19-.02,.37,.04,.52,.17l18.42,17.2c.73,.68,1.84,.75,2.64,.16,.68-.5,1.07-1.16,1.15-1.94,.17-1.62-.98-3.86-3.3-6.46l-10.35-8.96c-1.21-1.04-2-2.48-2.24-4.05-.47-3.27-1.84-11.38-4.38-16.21l-.39-.73h.98c.3,.06,.83,.15,1.58,.33,2.21,.56,4.37,1.36,6.41,2.39,2.2,1.13,4.71,1.36,7.07,.66,2.07-.52,3.67-2.04,4.31-4.05,.02-.05,.03-.1,.04-.15,.04-.25-.02-.49-.16-.69-.14-.2-.36-.34-.6-.38l-.72-.12c-5.62-1.12-10.92-3.63-15.35-7.26-.15-.12-13.9-11.82-16.83-13.47l-.42-.24,13.92-26.59c.65-1.22,.46-2.73-.46-3.75-3.13-3.49-11.7-11.26-23.67-8.04-.11,.03-.21,.13-.23,.25l-.68,3.28-5.81,28.35c-.01,.1-1.81,13.51,1.84,25.76l11.84,34.55c.06,.36,1.06,6.73,7.27,6.43h.27s.16,.21,.16,.21c2.5,3.51,6.68,8.18,8.13,7.55,.42-.18,1.26-1.23,.12-7.17l-.32-1.64Z" fill="#002346"></path>
  </g>
  <g>
    <path d="M440.73,395.24l-28,13c-2.52,1.45-5.21,3.91-7.43,6.22-5.07,5.27-10.91,9.79-17.47,13.02-.86,.42-1.72,.83-2.59,1.23-4.32,1.95-7.96,5.14-10.46,9.17-.53,.93-1.14,1.82-1.8,2.66-1.61,2.22-3.5,4.24-5.6,6-3.24,2.51-4.49,1.38-4.49,1.38-1.71-1-.65-4.28,1-7.61,1.27-2.46,2.69-4.85,4.24-7.15,.07-.1-.06-.21-.15-.13l-7.84,7.25c-5.62,6.09-9.07,7.48-10.9,7.64h-.39c-.43,.03-.87-.07-1.25-.27-5.75-2.38,12.91-23.38,13.42-24l-.1,.05-14,8.17c-11.91,7.48-14.71,5.46-14.71,5.46-.66-.32-1.21-.83-1.57-1.47-1.5-2.87,4.66-6.28,4.66-6.28,17.9-10.07,21-16.34,21-16.34-1.46,.93-2.85,1.8-4.17,2.58l-.08,.05c-18.87,11.29-23.95,8.56-23.95,8.56-.36-.26-.62-.64-.73-1.07-1.1-4.24,14.67-11.81,20.65-14.51,1.38-.62,2.72-1.36,3.98-2.2,12.71-8.44,41.29-11.09,41.29-11.09l28-19.7h0c5.83,6.72,19.44,19.38,19.44,19.38Z" fill="#f2b3c1"></path>
    <path d="M363.81,448.67c-.67,0-1.06-.24-1.2-.34-1.68-1.02-1.4-3.72,.84-8.24,.8-1.54,1.65-3.06,2.56-4.55l-5.52,5.11c-5.63,6.1-9.2,7.6-11.2,7.77h-.43c-.5,.03-1.02-.08-1.48-.33-.65-.27-1.11-.81-1.28-1.54-.94-3.99,6.86-14.16,12.64-20.99l-11.55,6.74c-11.84,7.44-14.94,5.66-15.25,5.43-.68-.32-1.3-.9-1.71-1.63-1.72-3.28,4.58-6.81,4.85-6.96,11.55-6.5,16.9-11.43,19.22-14.04-.62,.38-1.26,.77-1.89,1.14-18.98,11.36-24.3,8.74-24.52,8.62-.51-.37-.83-.84-.98-1.38-1.14-4.39,12.62-11.34,20.93-15.09,1.35-.61,2.67-1.34,3.91-2.16,12.36-8.21,39-10.93,41.39-11.16l28.26-19.88,.3,.34c5.75,6.62,19.27,19.22,19.4,19.34l.54,.51-28.67,13.31c-2.07,1.19-4.53,3.25-7.28,6.11-5.4,5.61-11.33,10.03-17.61,13.12-.86,.42-1.73,.84-2.6,1.24-4.25,1.92-7.79,5.02-10.24,8.98-.53,.93-1.15,1.85-1.83,2.71-1.62,2.23-3.54,4.28-5.67,6.07-1.8,1.39-3.07,1.75-3.9,1.75Zm-.58-1.13s1.07,.75,3.85-1.4c2.06-1.73,3.91-3.71,5.5-5.9,.66-.84,1.25-1.71,1.77-2.62,2.57-4.14,6.26-7.38,10.69-9.38,.86-.39,1.72-.8,2.57-1.22,6.18-3.04,12.01-7.39,17.33-12.92,2.81-2.93,5.35-5.05,7.54-6.31l27.37-12.71c-2.55-2.39-13.39-12.61-18.64-18.57l-27.74,19.52h-.13c-.28,.04-28.6,2.75-41.06,11.02-1.29,.85-2.65,1.61-4.05,2.24-13.24,5.98-21.05,11.32-20.37,13.93,.08,.32,.28,.6,.54,.79h0s5.27,2.26,23.4-8.58c1.54-.91,3.07-1.88,4.24-2.62l1.51-.96-.79,1.61c-.13,.26-3.37,6.52-21.2,16.55-1.6,.89-5.5,3.62-4.46,5.61,.31,.54,.77,.97,1.35,1.25,.08,.05,2.99,1.62,14.23-5.43l14.14-8.24,2.13-1.08-1.77,2.14c-9.5,10.96-14.77,19.21-14.1,22.06,.1,.42,.33,.7,.74,.87,.34,.18,.68,.25,1.03,.23h.42c1.45-.13,4.81-1.28,10.53-7.48l7.87-7.28c.22-.21,.57-.22,.8-.02,.23,.2,.27,.54,.1,.79-1.53,2.28-2.95,4.67-4.21,7.1-1.89,3.82-2.32,6.29-1.19,6.95l.08,.06h0Z" fill="#002346"></path>
  </g>
  <g>
    <path d="M492,513.84c-.26,.37-.51,.74-.77,1.1-17.12,24.21-36.65,17.63-36.65,17.63,4.94-1.11,8.95-4.75,11.99-8.75,6.27-8.24,8.93-18.62,8.15-28.95-1.54-20.44-13.97-33.65-13.97-33.65-13.62-2.34-17.15-8.45-17.15-8.45-1.77-6.45-8.18-5.61-12-4.44-1.63,.51-3.15,1.33-4.47,2.42-8.56,1.81-12.46-.65-12.46-.65-7.56-3.44,0-9.26,0-9.26,6.68-7,16.46-5.58,20.25-6.4,1.05-.22,2.12-.35,3.2-.37,7.98-.27,15.94,.85,23.53,3.32h0c29,9.73,34.82,37.46,34.82,37.46,7.31,18.53-4.48,38.98-4.48,38.98Z" fill="#002346"></path>
    <path d="M460.78,533.84c-3.86,0-6.28-.78-6.35-.8l-1.69-.57,1.74-.39c4.16-.93,8.09-3.81,11.7-8.56,5.99-7.88,8.85-18.04,8.05-28.61-1.44-19-12.5-31.85-13.73-33.22-13.55-2.37-17.18-8.41-17.33-8.66l-.05-.12c-.52-1.9-1.51-3.26-2.94-4.04-2.54-1.4-5.99-.8-8.43-.05-1.57,.49-3.02,1.27-4.3,2.33l-.09,.08-.12,.03c-8.65,1.83-12.66-.61-12.83-.72-2.16-.98-3.38-2.31-3.57-3.92-.36-3.12,3.37-6.03,3.53-6.16,5.21-5.47,12.33-5.89,17.05-6.16,1.38-.08,2.56-.15,3.4-.33,1.08-.23,2.19-.36,3.3-.38,8.05-.27,16.02,.85,23.69,3.34,28.94,9.71,35.1,37.55,35.16,37.83,7.29,18.46-4.42,39.13-4.54,39.33l-.31,.45c-.16,.23-.32,.47-.49,.69-11.2,15.84-23.58,18.61-30.86,18.61Zm-4.21-1.33c5.19,.88,20.57,1.5,34.25-17.86,.16-.23,.32-.45,.48-.68l.28-.4c.4-.7,11.48-20.67,4.44-38.53-.08-.36-6.13-27.65-34.51-37.17-7.56-2.45-15.42-3.57-23.35-3.29-1.05,.02-2.09,.14-3.11,.36-.91,.2-2.14,.27-3.55,.35-4.56,.27-11.44,.67-16.44,5.9-.09,.08-3.5,2.74-3.2,5.3,.14,1.24,1.17,2.3,3.05,3.16,.07,.04,2.32,1.38,7.02,1.25,2.52-.07,4.95-.85,7.17-2.04,.76-.41,1.56-.74,2.39-1,2.63-.81,6.36-1.44,9.21,.13,1.03,.57,1.87,1.39,2.5,2.44,1.69,2.84,3.92,5.36,6.86,6.88,2.54,1.32,6.05,2.61,10.82,3.43l.17,.03,.11,.12c.13,.13,12.56,13.57,14.1,33.95,.82,10.81-2.11,21.21-8.25,29.29-3.22,4.23-6.71,7.04-10.4,8.38Z" fill="#002346"></path>
  </g>
  <g opacity=".2">
    <path d="M244.9,351.99c2.38,2.73,4.93,5.31,7.62,7.74,0,0,.32-8.59-7.62-7.74Z"></path>
  </g>
  <g>
    <path d="M324.95,173.06s6,22.86,44.57,9.43l-1.71-15.86-15.71-11.57-29-14-6,10,7.86,22Z" fill="#002346"></path>
    <path d="M347.95,187.24c-5.38,0-10.04-1.04-13.96-3.13-7.52-4-9.39-10.4-9.52-10.89l-7.93-22.2,6.36-10.59,29.41,14.2,15.97,11.75,1.78,16.47-.38,.13c-8.18,2.85-15.44,4.27-21.73,4.27Zm-30.31-36.12l7.79,21.82c.02,.06,1.78,6.44,9.06,10.3,8.17,4.34,19.77,3.97,34.49-1.09l-1.65-15.24-15.54-11.44-28.51-13.75-5.64,9.41Z" fill="#002346"></path>
  </g>
  <g>
    <ellipse cx="370.1" cy="181.11" rx="9.19" ry="12.02" fill="#f2b3c1"></ellipse>
    <path d="M370.1,193.63c-5.34,0-9.69-5.62-9.69-12.52s4.35-12.52,9.69-12.52,9.69,5.62,9.69,12.52-4.35,12.52-9.69,12.52Zm0-24.04c-4.79,0-8.69,5.17-8.69,11.52s3.9,11.52,8.69,11.52,8.69-5.17,8.69-11.52-3.9-11.52-8.69-11.52Z" fill="#002346"></path>
  </g>
  <path d="M325.08,344.01c-.13,0-.26-.05-.36-.16-.37-.39-9.13-9.89-6.13-33.85,.02-.17,1.97-17.02,0-25.83-.06-.27,.11-.54,.38-.6,.27-.05,.54,.11,.6,.38,2,8.98,.09,25.47,0,26.17-2.93,23.44,5.77,32.95,5.86,33.04,.19,.2,.18,.52-.02,.71-.1,.09-.22,.14-.34,.14Z" fill="#002346"></path>
  <path d="M378.09,390.56c-.19,0-.38-.11-.46-.3-19.81-45.57-20.12-104.17-20.13-104.76,0-.28,.22-.5,.5-.5h0c.28,0,.5,.22,.5,.5,0,.58,.31,58.99,20.04,104.36,.11,.25,0,.55-.26,.66-.06,.03-.13,.04-.2,.04Z" fill="#002346"></path>
  <path d="M459.59,409.06c-.09,0-.18-.02-.26-.07-19.25-11.72-34.55-28.49-40.23-35.15-.2-.24-.32-.38-.37-.42-.1-.1-.15-.24-.14-.38s.07-.27,.18-.36l41-34c.21-.18,.53-.15,.7,.07,.18,.21,.15,.53-.07,.7l-40.61,33.67s.04,.04,.06,.07c5.62,6.59,20.68,23.11,39.66,34.74l23.14-22.91c.2-.2,.51-.19,.71,0,.19,.2,.19,.51,0,.71l-23.42,23.19c-.1,.09-.22,.14-.35,.14Z" fill="#002346"></path>
  <path d="M446.09,349.56c-.21,0-.4-.13-.47-.34l-15-45c-.09-.26,.05-.54,.32-.63,.26-.09,.55,.05,.63,.32l15,45c.09,.26-.05,.54-.32,.63-.05,.02-.11,.03-.16,.03Z" fill="#002346"></path>
  <path d="M284.12,488.15c-.2,0-.39-.12-.46-.31l-5.04-12.58c-.1-.26,.02-.55,.28-.65,.26-.1,.55,.02,.65,.28l5.04,12.58c.1,.26-.02,.55-.28,.65-.06,.02-.12,.04-.19,.04Z" fill="#002346"></path>
  <path d="M293.26,488.15c-.19,0-.37-.11-.45-.29l-6.68-14.08c-.12-.25-.01-.55,.24-.67,.25-.12,.55-.01,.67,.24l6.68,14.08c.12,.25,.01,.55-.24,.67-.07,.03-.14,.05-.21,.05Z" fill="#002346"></path>
  <path d="M360.09,599.56c-.24,0-.45-.17-.49-.42-.05-.27,.14-.53,.41-.58,11.6-1.93,19.92-18.97,20.01-19.14,.12-.25,.42-.35,.67-.23,.25,.12,.35,.42,.23,.67-.35,.72-8.63,17.68-20.74,19.7-.03,0-.06,0-.08,0Z" fill="#002346"></path>
  <path d="M466.2,567.15s-.08,0-.12-.01c-.27-.07-.43-.34-.37-.6l2.94-12.01c.07-.27,.34-.43,.6-.37,.27,.07,.43,.34,.37,.6l-2.94,12.01c-.06,.23-.26,.38-.49,.38Z" fill="#002346"></path>
  <path d="M475.59,565.06s-.07,0-.11-.01c-.27-.06-.44-.33-.38-.6l2-9c.06-.27,.33-.43,.6-.38,.27,.06,.44,.33,.38,.6l-2,9c-.05,.23-.26,.39-.49,.39Z" fill="#002346"></path>
  <path d="M540.89,571.85s-.03,0-.04,0l-26.81-2.28c-.27-.02-.48-.27-.46-.54,.02-.28,.25-.47,.54-.46l26.81,2.28c.27,.02,.48,.27,.46,.54-.02,.26-.24,.46-.5,.46Z" fill="#002346"></path>
  <path d="M542.68,577.96s-.02,0-.04,0l-27.09-1.89c-.28-.02-.48-.26-.46-.53s.26-.48,.53-.46l27.09,1.89c.28,.02,.48,.26,.46,.53-.02,.26-.24,.46-.5,.46Z" fill="#002346"></path>
  <path d="M330.09,587.56c-.12,0-.24-.04-.33-.13l-40-36c-.21-.19-.22-.5-.04-.71,.19-.2,.5-.22,.71-.04l40,36c.21,.19,.22,.5,.04,.71-.1,.11-.23,.17-.37,.17Z" fill="#002346"></path>
  <path d="M388.19,629.98c-4.09,0-7.12-.68-9.35-1.58-4.84-1.96-6.17-5.02-6.22-5.14-.11-.25,.01-.55,.27-.65,.25-.11,.55,.01,.65,.27h0s1.26,2.84,5.74,4.63c5.74,2.29,17.13,3.07,38.81-6.23l42.77-21.65c.25-.13,.55-.03,.67,.22,.12,.25,.03,.55-.22,.67l-42.79,21.66c-13.79,5.92-23.52,7.81-30.33,7.81Z" fill="#002346"></path>
  <path d="M545.09,554.56c-.19,0-.37-.11-.45-.29-.12-.25,0-.55,.24-.67l35.83-16.83c.25-.12,.55,0,.67,.24,.12,.25,0,.55-.24,.67l-35.83,16.83c-.07,.03-.14,.05-.21,.05Z" fill="#002346"></path>
  <g>
    <g>
      <rect x="519.45" y="384.95" width="9.4" height="6.27" fill="#fff"></rect>
      <path d="M529.34,391.72h-10.4v-7.27h10.4v7.27Zm-9.4-1h8.4v-5.27h-8.4v5.27Z" fill="#002346"></path>
    </g>
    <g>
      <path d="M542.49,434.57l-36.62,.37c-3.18,.03-4.86-3.76-2.69-6.09l10.47-11.3c1.12-1.2,2.09-2.53,2.9-3.96,1.01-1.78,1.75-3.72,2.16-5.74,.51-2.51,.37-4.2,.37-4.2v-11.08s10.29,0,10.29,0v11.28s-.04,.79,.09,2.07c.28,2.72,1.13,5.32,2.45,7.67,.82,1.46,1.82,2.82,2.98,4.05l10.2,10.82c2.17,2.3,.56,6.08-2.6,6.11Z" fill="#fff"></path>
      <path d="M505.83,435.44c-1.66,0-3.1-.94-3.77-2.45-.68-1.53-.39-3.25,.75-4.48l10.47-11.3c1.1-1.18,2.05-2.49,2.83-3.87,1-1.78,1.71-3.66,2.11-5.59,.49-2.4,.37-4.04,.36-4.06v-11.62s11.29,0,11.29,0v11.78s-.03,.8,.09,2.02c.27,2.62,1.07,5.14,2.38,7.47,.8,1.43,1.78,2.76,2.91,3.95l10.21,10.82c1.14,1.21,1.44,2.91,.79,4.45-.65,1.53-2.09,2.49-3.75,2.51l-36.62,.37h-.05Zm13.75-42.38v10.58s.14,1.75-.38,4.29c-.42,2.04-1.16,4.02-2.22,5.89-.82,1.45-1.82,2.82-2.97,4.06l-10.47,11.3c-.86,.93-1.08,2.23-.57,3.39,.51,1.15,1.6,1.86,2.86,1.86h.03l36.62-.37c1.26-.01,2.35-.74,2.84-1.9,.49-1.16,.26-2.45-.6-3.37l-10.2-10.82c-1.18-1.25-2.21-2.64-3.05-4.14-1.38-2.45-2.22-5.1-2.51-7.86-.13-1.3-.09-2.11-.09-2.14v-10.76h-9.29Z" fill="#002346"></path>
    </g>
    <g>
      <path d="M542.49,434.57l-36.62,.37c-3.18,.03-4.86-3.76-2.69-6.09l10.47-11.3c1.12-1.2,2.09-2.53,2.9-3.96h15.36c.82,1.46,1.82,2.82,2.98,4.05l10.2,10.82c2.17,2.3,.56,6.08-2.6,6.11Z" fill="#423A36"></path>
      <path d="M505.83,435.44c-1.66,0-3.1-.94-3.77-2.45-.68-1.53-.39-3.25,.75-4.48l10.47-11.3c1.1-1.18,2.05-2.49,2.83-3.87l.14-.25h15.94l.14,.25c.8,1.43,1.78,2.76,2.91,3.95l10.21,10.82c1.14,1.21,1.44,2.91,.79,4.45-.65,1.53-2.09,2.49-3.75,2.51l-36.62,.37h-.05Zm11.01-21.35c-.79,1.36-1.74,2.63-2.83,3.8l-10.47,11.3c-.86,.93-1.08,2.23-.57,3.39,.51,1.15,1.6,1.86,2.86,1.86h.03l36.62-.37c1.26-.01,2.35-.74,2.84-1.9,.49-1.16,.26-2.45-.6-3.37l-10.2-10.82c-1.11-1.18-2.09-2.48-2.91-3.89h-14.78Z" fill="#002346"></path>
    </g>
    <g>
      <rect x="517.21" y="390.03" width="13.88" height="5.05" rx=".83" ry=".83" fill="#002346"></rect>
      <path d="M530.26,395.58h-12.22c-.73,0-1.33-.6-1.33-1.33v-3.39c0-.73,.6-1.33,1.33-1.33h12.22c.73,0,1.33,.6,1.33,1.33v3.39c0,.73-.6,1.33-1.33,1.33Zm-12.22-5.05c-.18,0-.33,.15-.33,.33v3.39c0,.18,.15,.33,.33,.33h12.22c.18,0,.33-.15,.33-.33v-3.39c0-.18-.15-.33-.33-.33h-12.22Z" fill="#002346"></path>
    </g>
  </g>
  <g>
    <ellipse cx="724.59" cy="408.64" rx="46.54" ry="20.43" fill="#fff"></ellipse>
    <path d="M724.59,429.56c-25.94,0-47.04-9.39-47.04-20.93s21.1-20.93,47.04-20.93,47.04,9.39,47.04,20.93-21.1,20.93-47.04,20.93Zm0-40.85c-25.38,0-46.04,8.94-46.04,19.93s20.65,19.93,46.04,19.93,46.04-8.94,46.04-19.93-20.65-19.93-46.04-19.93Z" fill="#002346"></path>
  </g>
  <g>
    <ellipse cx="723.33" cy="384.84" rx="36.22" ry="15.79" fill="#fff"></ellipse>
    <path d="M723.32,401.14c-20.25,0-36.72-7.31-36.72-16.29s16.47-16.29,36.72-16.29,36.72,7.31,36.72,16.29-16.47,16.29-36.72,16.29Zm0-31.59c-19.7,0-35.72,6.86-35.72,15.29s16.02,15.29,35.72,15.29,35.72-6.86,35.72-15.29-16.02-15.29-35.72-15.29Z" fill="#002346"></path>
  </g>
  <g>
    <ellipse cx="725.43" cy="361.48" rx="29.48" ry="13.48" fill="#fff"></ellipse>
    <path d="M725.43,375.46c-16.53,0-29.98-6.27-29.98-13.98s13.45-13.98,29.98-13.98,29.98,6.27,29.98,13.98-13.45,13.98-29.98,13.98Zm0-26.96c-15.98,0-28.98,5.82-28.98,12.98s13,12.98,28.98,12.98,28.98-5.82,28.98-12.98-13-12.98-28.98-12.98Z" fill="#002346"></path>
  </g>
  <g>
    <ellipse cx="726.27" cy="344.3" rx="20.64" ry="9.82" fill="#fff"></ellipse>
    <path d="M726.27,354.63c-11.85,0-21.14-4.53-21.14-10.32s9.28-10.32,21.14-10.32,21.14,4.53,21.14,10.32-9.28,10.32-21.14,10.32Zm0-19.64c-11.1,0-20.14,4.18-20.14,9.32s9.03,9.32,20.14,9.32,20.14-4.18,20.14-9.32-9.03-9.32-20.14-9.32Z" fill="#002346"></path>
  </g>
  <g>
    <g>
      <rect x="551.59" y="254.56" width="50" height="13" fill="#fff"></rect>
      <path d="M602.09,268.06h-51v-14h51v14Zm-50-1h49v-12h-49v12Z" fill="#002346"></path>
    </g>
    <g>
      <g opacity=".1">
        <circle cx="576.59" cy="216.56" r="22.5" fill="#fff"></circle>
      </g>
      <g>
        <path d="M586.59,254.56h-24v-27.72c0-1.12,1.06-1.92,2.14-1.62,2.56,.71,5.92,1.34,9.86,1.34,2.42,0,5.87-.24,9.85-1.33,1.08-.3,2.15,.5,2.15,1.62v27.72Z" fill="#fff"></path>
        <path d="M587.09,255.06h-25v-28.21c0-.69,.31-1.32,.86-1.74,.55-.42,1.25-.55,1.92-.37,6.33,1.75,13.11,1.75,19.44,0,.68-.19,1.38-.05,1.93,.37,.54,.41,.86,1.04,.86,1.73v28.22Zm-24-1h23v-27.22c0-.37-.17-.71-.46-.93-.3-.23-.69-.3-1.06-.2-6.5,1.79-13.47,1.79-19.97,0-.37-.1-.75-.03-1.05,.2-.3,.22-.46,.57-.46,.94v27.21Z" fill="#002346"></path>
      </g>
      <g>
        <path d="M574.9,205.65s-12.29,9.9,.64,20.88c.02,.02,.05,.02,.08,0,.7-.67,11.56-11.28-.72-20.89Z" fill="#2A4A30"></path>
        <path d="M575.64,227.21l-.42-.3c-4.09-3.47-6.14-7.22-6.09-11.13,.08-6.11,5.24-10.34,5.46-10.52l.31-.25,.31,.25c3.81,2.98,5.82,6.36,6,10.05,.29,6.16-4.68,11.06-5.24,11.6l-.33,.31Zm-.72-20.91c-1.08,.99-4.73,4.67-4.79,9.5-.04,3.5,1.79,6.89,5.44,10.09,1.15-1.17,4.89-5.4,4.65-10.54-.16-3.28-1.94-6.33-5.29-9.05Z" fill="#002346"></path>
      </g>
    </g>
  </g>
  <g>
    <g>
      <rect x="468.59" y="151.56" width="50" height="13" fill="#fff"></rect>
      <path d="M519.09,165.06h-51v-14h51v14Zm-50-1h49v-12h-49v12Z" fill="#002346"></path>
    </g>
    <g>
      <g opacity=".1">
        <circle cx="493.59" cy="113.56" r="22.5" fill="#fff"></circle>
      </g>
      <g>
        <path d="M503.59,151.56h-24v-27.72c0-1.12,1.06-1.92,2.14-1.62,2.56,.71,5.92,1.34,9.86,1.34,2.42,0,5.87-.24,9.85-1.33,1.08-.3,2.15,.5,2.15,1.62v27.72Z" fill="#fff"></path>
        <path d="M504.09,152.06h-25v-28.21c0-.69,.31-1.32,.86-1.74,.55-.42,1.25-.55,1.92-.37,6.33,1.75,13.11,1.75,19.44,0,.68-.19,1.38-.05,1.93,.37,.54,.41,.86,1.04,.86,1.73v28.22Zm-24-1h23v-27.22c0-.37-.17-.71-.46-.93-.3-.23-.69-.3-1.06-.2-6.5,1.79-13.47,1.79-19.97,0-.37-.1-.75-.03-1.05,.2-.3,.22-.46,.57-.46,.94v27.21Z" fill="#002346"></path>
      </g>
      <g>
        <path d="M491.9,102.65s-12.29,9.9,.64,20.88c.02,.02,.05,.02,.08,0,.7-.67,11.56-11.28-.72-20.89Z" fill="#2A4A30"></path>
        <path d="M492.64,124.21l-.42-.3c-4.09-3.47-6.14-7.22-6.09-11.13,.08-6.11,5.24-10.34,5.46-10.52l.31-.25,.31,.25c3.81,2.98,5.82,6.36,6,10.05,.29,6.16-4.68,11.06-5.24,11.6l-.33,.31Zm-.72-20.91c-1.08,.99-4.73,4.67-4.79,9.5-.04,3.5,1.79,6.89,5.44,10.09,1.15-1.17,4.89-5.4,4.65-10.54-.16-3.28-1.94-6.33-5.29-9.05Z" fill="#002346"></path>
      </g>
    </g>
  </g>
  <g>
    <g>
      <rect x="214.59" y="276.56" width="50" height="13" fill="#fff"></rect>
      <path d="M265.09,290.06h-51v-14h51v14Zm-50-1h49v-12h-49v12Z" fill="#002346"></path>
    </g>
    <g>
      <g opacity=".1">
        <circle cx="239.59" cy="238.56" r="22.5" fill="#fff"></circle>
      </g>
      <g>
        <path d="M249.59,276.56h-24v-27.72c0-1.12,1.06-1.92,2.14-1.62,2.56,.71,5.92,1.34,9.86,1.34,2.42,0,5.87-.24,9.85-1.33,1.08-.3,2.15,.5,2.15,1.62v27.72Z" fill="#fff"></path>
        <path d="M250.09,277.06h-25v-28.21c0-.69,.31-1.32,.86-1.74,.55-.42,1.25-.55,1.92-.37,6.33,1.75,13.11,1.75,19.44,0,.68-.19,1.38-.05,1.93,.37,.54,.41,.86,1.04,.86,1.73v28.22Zm-24-1h23v-27.22c0-.37-.17-.71-.46-.93-.3-.23-.69-.3-1.06-.2-6.5,1.79-13.47,1.79-19.97,0-.37-.1-.75-.03-1.05,.2-.3,.22-.46,.57-.46,.94v27.21Z" fill="#002346"></path>
      </g>
      <g>
        <path d="M237.9,227.65s-12.29,9.9,.64,20.88c.02,.02,.05,.02,.08,0,.7-.67,11.56-11.28-.72-20.89Z" fill="#2A4A30"></path>
        <path d="M238.64,249.21l-.42-.3c-4.09-3.47-6.14-7.22-6.09-11.13,.08-6.11,5.24-10.34,5.46-10.52l.31-.25,.31,.25c3.81,2.98,5.82,6.36,6,10.05,.29,6.16-4.68,11.06-5.24,11.6l-.33,.31Zm-.72-20.91c-1.08,.99-4.73,4.67-4.79,9.5-.04,3.5,1.79,6.89,5.44,10.09,1.15-1.17,4.89-5.4,4.65-10.54-.16-3.28-1.94-6.33-5.29-9.05Z" fill="#002346"></path>
      </g>
    </g>
  </g>
</svg>
