<svg xmlns="http://www.w3.org/2000/svg" version="1.1" xmlns:xlink="http://www.w3.org/1999/xlink" xmlns:svgjs="http://svgjs.com/svgjs" width="512" height="512" x="0" y="0" viewBox="0 0 512 512" style="enable-background:new 0 0 512 512" xml:space="preserve" class=""><circle r="256" cx="256" cy="256" fill="#2a4a30" shape="circle"></circle><g transform="matrix(0.8400000000000002,0,0,0.8400000000000002,40.95999999999995,95.98584091186524)"><path d="M512 261.738c0-5.242-2.96-9.718-7.547-11.398-4.203-1.543-8.848-.266-11.832 3.262l-8.82 10.414-21.64-87.028c-1.481-5.996-6.141-10.593-12.169-12.004l-61.238-14.257 33.57-51.016 15.598-20a7.499 7.499 0 0 0-.469-9.77l-2.21-2.336 5.452-4.976a16.514 16.514 0 0 0 5.41-11.668 16.53 16.53 0 0 0-4.53-12.05l-4.352-4.61a16.66 16.66 0 0 0-20.172-3.117l-10.68 5.93-.281-.298a10.424 10.424 0 0 0-11.238-2.601 10.423 10.423 0 0 0-6.77 9.344l-.156 3.793-22.942 12.738-23.738-7.184c-.004 0-.004 0-.004-.004l-40.508-12.5c-.062-.02-.129-.039-.195-.058-10.031-2.797-20.89-.969-29.437 4.875a30.416 30.416 0 0 0-6.297-14.157l-15.637-19.574c-10.531-13.183-29.824-15.34-43.008-4.812l-4.18 3.34c-6.386 5.101-10.402 12.382-11.312 20.507-.906 8.125 1.402 16.114 6.504 22.5l15.637 19.575a30.424 30.424 0 0 0 11.53 8.87c-7.898 7.813-11.886 19.005-10.523 30.18l15.692 128.11-3.23 3.484-18.958-2.422a7.495 7.495 0 0 0-8.39 6.489c-.524 4.109 2.379 7.867 6.488 8.39l16.234 2.074v25.137l-46.547-4.765h-.011c-.004 0-.008-.004-.016-.004l-38.617-3.813c-4.133-.402-7.797 2.606-8.203 6.727a7.506 7.506 0 0 0 6.726 8.203l31.856 3.144v17.418h-31.117c-.028 0-.051.004-.078.004h-26.743v-2.789c0-11.031-6.207-20.637-15.312-25.515a32.16 32.16 0 0 0 7.195-16.063h3.64c5.735 0 11.329-1.91 16.18-5.527l13.125-9.832c2.66-1.985 5.622-2.836 8.555-2.465l31.106 3.976a7.5 7.5 0 1 0 1.898-14.879l-31.11-3.976c-6.777-.86-13.671 1.031-19.433 5.332l-13.121 9.828c-2.23 1.664-4.723 2.543-7.203 2.543h-3.637c-2.254-15.613-15.719-27.648-31.945-27.648H41.957c-17.8 0-32.281 14.48-32.281 32.28v5.735a32.109 32.109 0 0 0 6.984 20.02C6.828 285.469 0 295.469 0 307.035v5.84c0 6.586 5.36 11.945 11.945 11.945l468.524.004H504.5c4.07 0 7.5-3.43 7.5-7.5zm-15 9.899v24.652l-7.434-9.102-1.3-5.238zm-174.512 38.187-2.078-5.457c-2.765-7.277-8.785-12.238-15.707-12.949l-7.969-.816 14.844-22.567 123.848 13.985 3.664 9.914-.238 17.89zm-140.648-15.91 121.336 12.426c1.004.101 2.387 1.18 3.215 3.355l.047.125H181.84zm138.984-39.934 24.024-36.52-5.223 38.645zm133.184 44.153h25.129l9.547 11.687h-34.832zm-7.422-118.54c.504.118.89.497 1.016 1l25.039 100.708c.03.12.062.238.097.351l.364 1.477h-21.274l-3.937-10.649a5.243 5.243 0 0 0-.137-.343l-22.02-59.512a16.318 16.318 0 0 0-13.14-10.535l-22.531-3.05a7.496 7.496 0 0 0-8.438 6.425 7.498 7.498 0 0 0 6.426 8.437l22.527 3.051c.496.067.914.402 1.09.879l17.918 48.43-75.05-8.473 9.362-69.297 16.063-24.41zm-43.11-123.718 15.5 16.371c.008.012.016.02.024.031.02.02.04.035.059.059l3.07 3.238-6.54 8.383-13.593-13.883.567-13.691zm20.848-11.574a1.652 1.652 0 0 1 1.996.304l4.344 4.602c.395.418.465.879.45 1.195a1.61 1.61 0 0 1-.532 1.149l-5.652 5.16-7.914-8.356zm-54.836 30.445 17.707-9.832-.207 5.023-19.797 21.348-28.445-8.617 2.629-7.137 2.29-6.219 20.01 6.055a7.508 7.508 0 0 0 5.813-.62zM342.5 117.914l-18.395-23.992 2.708.8 29.035 8.798zM296.418 54.77l32.883 10.148-4.11 11.156-.836 2.274-9.359-2.774a7.99 7.99 0 0 0-.855-.199 10.525 10.525 0 0 0-10.864 4.96 10.542 10.542 0 0 0 .66 11.935l28.215 36.8-41.797 45.07-26.41-41.074a9.988 9.988 0 0 0-11.64-4.046 9.988 9.988 0 0 0-6.742 10.308l1.292 15.356-12.25 3.343-5.902-48.195c-.902-7.418 2.211-14.855 8.125-19.402l10.957-8.426a30.593 30.593 0 0 0 8.031-4.594l4.176-3.34a30.727 30.727 0 0 0 5.485-5.672l13.171-10.136c5.02-3.864 11.657-5.168 17.77-3.492zm-30.64 145.875-3.438-40.833c0-.011-.004-.023-.004-.035l-.145-1.707 17.633 27.43zm-22.923 24.718-6.406-52.293 11.688-3.187 3.843 45.644zM208.891 43.664a15.497 15.497 0 0 1-3.317-11.473 15.507 15.507 0 0 1 5.77-10.457l4.18-3.336c6.718-5.367 16.554-4.27 21.921 2.45l15.64 19.574a15.494 15.494 0 0 1 3.313 11.473c-.246 2.199-.949 4.273-2.035 6.128L240.617 68.59c-5.77 1.48-12.137-.406-16.09-5.352zm27.761 210.45.086-.094 14.73-15.883L265.23 223.3c.012-.016.028-.031.04-.051L394.516 83.875l12.12 12.383-56.214 85.426-.082.128-.035.06c-.028.038-.051.077-.075.116l-70.32 106.89-43.258-4.433zm-211.976.976c0-9.531 7.75-17.281 17.281-17.281H68.84c9.527 0 17.281 7.75 17.281 17.28v5.735c0 9.531-7.754 17.281-17.281 17.281H41.957c-9.531 0-17.281-7.75-17.281-17.28zM15 307.035c0-7.68 6.246-13.93 13.93-13.93h51.043c7.68 0 13.93 6.25 13.93 13.93v2.785H15zm0 0" fill="#f1e6d5" data-original="#000000" class="" opacity="1"></path></g></svg>